  0
SECTION
  2
HEADER
  9
$ANGBASE
  50
0.0
  9
$ANGDIR
  70
1
  9
$MEASUREMENT
  70
1
  0
ENDSEC
  0
SECTION
  2
TABLES
  0
TABLE
  2
LTYPE
  70
4
  0
LTYPE
  5
40F
  2
CONTINUOUS
  70
0
  3
Solid line
  72
65
  73
0
  40
0.0
  0
LTYPE
  5
410
  2
DASHDOT
 70
0
  3
Dash Dot ____ _ ____ _
 72
65
 73
4
 40
2.0
 49
1.25
 49
-0.25
 49
0.25
 49
-0.25
  0
LTYPE
  5
411
  2
DASHED
 70
0
  3
Dashed __ __ __ __ __
 72
65
 73
2
 40
0.75
 49
0.5
 49
-0.25
  0
LTYPE
  5
43B
  2
DOTTED
 70
0
  3
Dotted .  .  .  .
 72
65
 73
2
 40
0.2
 49
0.0
 49
-0.2
  0
ENDTAB
  0
TABLE
  2
STYLE
  70
4
  0
STYLE
  2
KICAD
  70
0
  40
0
  41
1
  42
1
  50
0
  71
0
  3
isocp.shx
  0
STYLE
  2
KICADB
  70
0
  40
0
  41
1
  42
1
  50
0
  71
0
  3
isocp.shx
  0
STYLE
  2
KICADI
  70
0
  40
0
  41
1
  42
1
  50
15
  71
0
  3
isocp.shx
  0
STYLE
  2
KICADBI
  70
0
  40
0
  41
1
  42
1
  50
15
  71
0
  3
isocp.shx
  0
ENDTAB
  0
TABLE
  2
LAYER
  70
1
  0
LAYER
  2
BLACK
  70
0
  62
7
  6
CONTINUOUS
  0
ENDTAB
  0
ENDSEC
  0
SECTION
  2
ENTITIES
0
LINE
8
BLACK
6
CONTINUOUS
10
195.5195089999999993
20
-99.9019210000000015
11
195.5555569999999932
21
-99.916852999999989
0
LINE
8
BLACK
6
CONTINUOUS
10
195.5555569999999932
20
-99.916852999999989
11
195.5831469999999968
21
-99.9444429999999926
0
LINE
8
BLACK
6
CONTINUOUS
10
195.5831469999999968
20
-99.9444429999999926
11
195.5980789999999843
21
-99.9804910000000007
0
LINE
8
BLACK
6
CONTINUOUS
10
195.5980789999999843
20
-99.9804910000000007
11
195.5999999999999943
21
-143.
0
LINE
8
BLACK
6
CONTINUOUS
10
195.5999999999999943
20
-143.
11
195.5980789999999843
21
-143.0195089999999993
0
LINE
8
BLACK
6
CONTINUOUS
10
195.5980789999999843
20
-143.0195089999999993
11
195.5831469999999968
21
-143.0555569999999932
0
LINE
8
BLACK
6
CONTINUOUS
10
195.5831469999999968
20
-143.0555569999999932
11
195.5555569999999932
21
-143.0831469999999968
0
LINE
8
BLACK
6
CONTINUOUS
10
195.5555569999999932
20
-143.0831469999999968
11
195.5195089999999993
21
-143.0980789999999843
0
LINE
8
BLACK
6
CONTINUOUS
10
195.5195089999999993
20
-143.0980789999999843
11
152.5
21
-143.0999999999999943
0
LINE
8
BLACK
6
CONTINUOUS
10
152.5
20
-143.0999999999999943
11
152.4804910000000007
21
-143.0980789999999843
0
LINE
8
BLACK
6
CONTINUOUS
10
152.4804910000000007
20
-143.0980789999999843
11
152.4444430000000068
21
-143.0831469999999968
0
LINE
8
BLACK
6
CONTINUOUS
10
152.4444430000000068
20
-143.0831469999999968
11
152.4168530000000032
21
-143.0555569999999932
0
LINE
8
BLACK
6
CONTINUOUS
10
152.4168530000000032
20
-143.0555569999999932
11
152.4019209999999873
21
-143.0195089999999993
0
LINE
8
BLACK
6
CONTINUOUS
10
152.4019209999999873
20
-143.0195089999999993
11
152.4000000000000057
21
-100.
0
LINE
8
BLACK
6
CONTINUOUS
10
152.4000000000000057
20
-100.
11
152.4019209999999873
21
-99.9804910000000007
0
LINE
8
BLACK
6
CONTINUOUS
10
152.4019209999999873
20
-99.9804910000000007
11
152.4168530000000032
21
-99.9444429999999926
0
LINE
8
BLACK
6
CONTINUOUS
10
152.4168530000000032
20
-99.9444429999999926
11
152.4444430000000068
21
-99.916852999999989
0
LINE
8
BLACK
6
CONTINUOUS
10
152.4444430000000068
20
-99.916852999999989
11
152.4804910000000007
21
-99.9019210000000015
0
LINE
8
BLACK
6
CONTINUOUS
10
152.4804910000000007
20
-99.9019210000000015
11
195.5
21
-99.8999999999999915
0
LINE
8
BLACK
6
CONTINUOUS
10
195.5
20
-99.8999999999999915
11
195.5195089999999993
21
-99.9019210000000015
0
LINE
8
BLACK
6
CONTINUOUS
10
152.5980840000000001
20
-100.0999949999999927
11
152.5999950000000069
21
-142.9019150000000025
0
LINE
8
BLACK
6
CONTINUOUS
10
152.5999950000000069
20
-142.9019150000000025
11
195.4019150000000025
21
-142.9000039999999956
0
LINE
8
BLACK
6
CONTINUOUS
10
195.4019150000000025
20
-142.9000039999999956
11
195.4000039999999956
21
-100.0980840000000001
0
LINE
8
BLACK
6
CONTINUOUS
10
195.4000039999999956
20
-100.0980840000000001
11
152.5980840000000001
21
-100.0999949999999927
0
LINE
8
BLACK
6
CONTINUOUS
10
149.0195089999999993
20
-100.9019210000000015
11
149.0555569999999932
21
-100.916852999999989
0
LINE
8
BLACK
6
CONTINUOUS
10
149.0555569999999932
20
-100.916852999999989
11
149.0831469999999968
21
-100.9444429999999926
0
LINE
8
BLACK
6
CONTINUOUS
10
149.0831469999999968
20
-100.9444429999999926
11
149.0980789999999843
21
-100.9804910000000007
0
LINE
8
BLACK
6
CONTINUOUS
10
149.0980789999999843
20
-100.9804910000000007
11
149.0999999999999943
21
-122.
0
LINE
8
BLACK
6
CONTINUOUS
10
149.0999999999999943
20
-122.
11
149.0980789999999843
21
-122.0195089999999993
0
LINE
8
BLACK
6
CONTINUOUS
10
149.0980789999999843
20
-122.0195089999999993
11
149.0831469999999968
21
-122.0555569999999932
0
LINE
8
BLACK
6
CONTINUOUS
10
149.0831469999999968
20
-122.0555569999999932
11
149.0555569999999932
21
-122.0831469999999968
0
LINE
8
BLACK
6
CONTINUOUS
10
149.0555569999999932
20
-122.0831469999999968
11
149.0195089999999993
21
-122.0980789999999985
0
LINE
8
BLACK
6
CONTINUOUS
10
149.0195089999999993
20
-122.0980789999999985
11
106.
21
-122.0999999999999943
0
LINE
8
BLACK
6
CONTINUOUS
10
106.
20
-122.0999999999999943
11
105.9804910000000007
21
-122.0980789999999985
0
LINE
8
BLACK
6
CONTINUOUS
10
105.9804910000000007
20
-122.0980789999999985
11
105.9444429999999926
21
-122.0831469999999968
0
LINE
8
BLACK
6
CONTINUOUS
10
105.9444429999999926
20
-122.0831469999999968
11
105.916852999999989
21
-122.0555569999999932
0
LINE
8
BLACK
6
CONTINUOUS
10
105.916852999999989
20
-122.0555569999999932
11
105.9019210000000015
21
-122.0195089999999993
0
LINE
8
BLACK
6
CONTINUOUS
10
105.9019210000000015
20
-122.0195089999999993
11
105.8999999999999915
21
-101.
0
LINE
8
BLACK
6
CONTINUOUS
10
105.8999999999999915
20
-101.
11
105.9019210000000015
21
-100.9804910000000007
0
LINE
8
BLACK
6
CONTINUOUS
10
105.9019210000000015
20
-100.9804910000000007
11
105.916852999999989
21
-100.9444429999999926
0
LINE
8
BLACK
6
CONTINUOUS
10
105.916852999999989
20
-100.9444429999999926
11
105.9444429999999926
21
-100.916852999999989
0
LINE
8
BLACK
6
CONTINUOUS
10
105.9444429999999926
20
-100.916852999999989
11
105.9804910000000007
21
-100.9019210000000015
0
LINE
8
BLACK
6
CONTINUOUS
10
105.9804910000000007
20
-100.9019210000000015
11
149.
21
-100.8999999999999915
0
LINE
8
BLACK
6
CONTINUOUS
10
149.
20
-100.8999999999999915
11
149.0195089999999993
21
-100.9019210000000015
0
LINE
8
BLACK
6
CONTINUOUS
10
106.0980890000000016
20
-101.0999949999999927
11
106.0999909999999886
21
-121.9019149999999883
0
LINE
8
BLACK
6
CONTINUOUS
10
106.0999909999999886
20
-121.9019149999999883
11
148.9019099999999867
21
-121.9000039999999956
0
LINE
8
BLACK
6
CONTINUOUS
10
148.9019099999999867
20
-121.9000039999999956
11
148.9000079999999855
21
-101.0980840000000001
0
LINE
8
BLACK
6
CONTINUOUS
10
148.9000079999999855
20
-101.0980840000000001
11
106.0980890000000016
21
-101.0999949999999927
0
LINE
8
BLACK
6
CONTINUOUS
10
199.5795090000000016
20
-69.9019210000000015
11
199.6155569999999955
21
-69.9168530000000032
0
LINE
8
BLACK
6
CONTINUOUS
10
199.6155569999999955
20
-69.9168530000000032
11
199.643146999999999
21
-69.9444429999999926
0
LINE
8
BLACK
6
CONTINUOUS
10
199.643146999999999
20
-69.9444429999999926
11
199.6580789999999865
21
-69.9804910000000007
0
LINE
8
BLACK
6
CONTINUOUS
10
199.6580789999999865
20
-69.9804910000000007
11
199.6599999999999966
21
-150.1699999999999875
0
LINE
8
BLACK
6
CONTINUOUS
10
199.6599999999999966
20
-150.1699999999999875
11
199.6580789999999865
21
-150.1895089999999868
0
LINE
8
BLACK
6
CONTINUOUS
10
199.6580789999999865
20
-150.1895089999999868
11
199.643146999999999
21
-150.2255569999999807
0
LINE
8
BLACK
6
CONTINUOUS
10
199.643146999999999
20
-150.2255569999999807
11
199.6155569999999955
21
-150.2531469999999842
0
LINE
8
BLACK
6
CONTINUOUS
10
199.6155569999999955
20
-150.2531469999999842
11
199.5795090000000016
21
-150.2680790000000002
0
LINE
8
BLACK
6
CONTINUOUS
10
199.5795090000000016
20
-150.2680790000000002
11
49.5599999999999952
21
-150.2699999999999818
0
LINE
8
BLACK
6
CONTINUOUS
10
49.5599999999999952
20
-150.2699999999999818
11
49.5404909999999958
21
-150.2680790000000002
0
LINE
8
BLACK
6
CONTINUOUS
10
49.5404909999999958
20
-150.2680790000000002
11
49.5044429999999949
21
-150.2531469999999842
0
LINE
8
BLACK
6
CONTINUOUS
10
49.5044429999999949
20
-150.2531469999999842
11
49.4768529999999984
21
-150.2255569999999807
0
LINE
8
BLACK
6
CONTINUOUS
10
49.4768529999999984
20
-150.2255569999999807
11
49.4619209999999967
21
-150.1895089999999868
0
LINE
8
BLACK
6
CONTINUOUS
10
49.4619209999999967
20
-150.1895089999999868
11
49.4619209999999967
21
-150.1699999999999875
0
LINE
8
BLACK
6
CONTINUOUS
10
49.4619209999999967
20
-150.1699999999999875
11
49.4600000000000009
21
-70.
0
LINE
8
BLACK
6
CONTINUOUS
10
49.4600000000000009
20
-70.
11
49.4619209999999967
21
-69.9804910000000007
0
LINE
8
BLACK
6
CONTINUOUS
10
49.4619209999999967
20
-69.9804910000000007
11
49.4768529999999984
21
-69.9444429999999926
0
LINE
8
BLACK
6
CONTINUOUS
10
49.4768529999999984
20
-69.9444429999999926
11
49.5044429999999949
21
-69.9168530000000032
0
LINE
8
BLACK
6
CONTINUOUS
10
49.5044429999999949
20
-69.9168530000000032
11
49.5404909999999958
21
-69.9019210000000015
0
LINE
8
BLACK
6
CONTINUOUS
10
49.5404909999999958
20
-69.9019210000000015
11
199.5600000000000023
21
-69.8999999999999915
0
LINE
8
BLACK
6
CONTINUOUS
10
199.5600000000000023
20
-69.8999999999999915
11
199.5795090000000016
21
-69.9019210000000015
0
LINE
8
BLACK
6
CONTINUOUS
10
49.6580809999999957
20
-70.0999979999999994
11
49.6599969999999971
21
-150.0719189999999799
0
LINE
8
BLACK
6
CONTINUOUS
10
49.6599969999999971
20
-150.0719189999999799
11
199.4619179999999972
21
-150.0700009999999907
0
LINE
8
BLACK
6
CONTINUOUS
10
199.4619179999999972
20
-150.0700009999999907
11
199.4600020000000029
21
-70.0980799999999959
0
LINE
8
BLACK
6
CONTINUOUS
10
199.4600020000000029
20
-70.0980799999999959
11
49.6580809999999957
21
-70.0999979999999994
  0
ENDSEC
  0
EOF
