%TF.GenerationSoftware,KiCad,Pcbnew,8.0.1*%
%TF.CreationDate,2024-10-12T00:49:27-03:00*%
%TF.ProjectId,placa de interface clp,706c6163-6120-4646-9520-696e74657266,rev?*%
%TF.SameCoordinates,Original*%
%TF.FileFunction,Drillmap*%
%TF.FilePolarity,Positive*%
%FSLAX45Y45*%
G04 Gerber Fmt 4.5, Leading zero omitted, Abs format (unit mm)*
G04 Created by KiCad (PCBNEW 8.0.1) date 2024-10-12 00:49:27*
%MOMM*%
%LPD*%
G01*
G04 APERTURE LIST*
%ADD10C,0.200000*%
%ADD11C,0.100000*%
%ADD12C,0.130000*%
%ADD13C,0.185000*%
%ADD14C,0.250000*%
G04 APERTURE END LIST*
D10*
X19956000Y-15017000D02*
X4956000Y-15017000D01*
X4956000Y-7000000D02*
X19956000Y-7000000D01*
X15250000Y-10000000D02*
X19550000Y-10000000D01*
X19550000Y-14300000D01*
X15250000Y-14300000D01*
X15250000Y-10000000D01*
X4956000Y-7000000D02*
X4956000Y-15017000D01*
X19956000Y-7000000D02*
X19956000Y-15017000D01*
X10600000Y-10100000D02*
X14900000Y-10100000D01*
X14900000Y-12200000D01*
X10600000Y-12200000D01*
X10600000Y-10100000D01*
D11*
X5585000Y-8052000D02*
X5665000Y-8132000D01*
X5665000Y-8052000D02*
X5585000Y-8132000D01*
X5585000Y-9068000D02*
X5665000Y-9148000D01*
X5665000Y-9068000D02*
X5585000Y-9148000D01*
X5610000Y-12848000D02*
X5690000Y-12928000D01*
X5690000Y-12848000D02*
X5610000Y-12928000D01*
X5610000Y-13864000D02*
X5690000Y-13944000D01*
X5690000Y-13864000D02*
X5610000Y-13944000D01*
X6033000Y-9333500D02*
X6113000Y-9413500D01*
X6113000Y-9333500D02*
X6033000Y-9413500D01*
X6033000Y-9587500D02*
X6113000Y-9667500D01*
X6113000Y-9587500D02*
X6033000Y-9667500D01*
X6460000Y-12428500D02*
X6540000Y-12508500D01*
X6540000Y-12428500D02*
X6460000Y-12508500D01*
X6460000Y-12682500D02*
X6540000Y-12762500D01*
X6540000Y-12682500D02*
X6460000Y-12762500D01*
X6795000Y-9333500D02*
X6875000Y-9413500D01*
X6875000Y-9333500D02*
X6795000Y-9413500D01*
X6795000Y-9587500D02*
X6875000Y-9667500D01*
X6875000Y-9587500D02*
X6795000Y-9667500D01*
X7222000Y-12428500D02*
X7302000Y-12508500D01*
X7302000Y-12428500D02*
X7222000Y-12508500D01*
X7222000Y-12682500D02*
X7302000Y-12762500D01*
X7302000Y-12682500D02*
X7222000Y-12762500D01*
X7585000Y-8052000D02*
X7665000Y-8132000D01*
X7665000Y-8052000D02*
X7585000Y-8132000D01*
X7585000Y-9068000D02*
X7665000Y-9148000D01*
X7665000Y-9068000D02*
X7585000Y-9148000D01*
X7610000Y-12848000D02*
X7690000Y-12928000D01*
X7690000Y-12848000D02*
X7610000Y-12928000D01*
X7610000Y-13864000D02*
X7690000Y-13944000D01*
X7690000Y-13864000D02*
X7610000Y-13944000D01*
X8385000Y-8052000D02*
X8465000Y-8132000D01*
X8465000Y-8052000D02*
X8385000Y-8132000D01*
X8385000Y-9068000D02*
X8465000Y-9148000D01*
X8465000Y-9068000D02*
X8385000Y-9148000D01*
X8410000Y-12817500D02*
X8490000Y-12897500D01*
X8490000Y-12817500D02*
X8410000Y-12897500D01*
X8410000Y-13833500D02*
X8490000Y-13913500D01*
X8490000Y-13833500D02*
X8410000Y-13913500D01*
X8833000Y-9333500D02*
X8913000Y-9413500D01*
X8913000Y-9333500D02*
X8833000Y-9413500D01*
X8833000Y-9587500D02*
X8913000Y-9667500D01*
X8913000Y-9587500D02*
X8833000Y-9667500D01*
X9210000Y-12398000D02*
X9290000Y-12478000D01*
X9290000Y-12398000D02*
X9210000Y-12478000D01*
X9210000Y-12652000D02*
X9290000Y-12732000D01*
X9290000Y-12652000D02*
X9210000Y-12732000D01*
X9595000Y-9333500D02*
X9675000Y-9413500D01*
X9675000Y-9333500D02*
X9595000Y-9413500D01*
X9595000Y-9587500D02*
X9675000Y-9667500D01*
X9675000Y-9587500D02*
X9595000Y-9667500D01*
X9972000Y-12398000D02*
X10052000Y-12478000D01*
X10052000Y-12398000D02*
X9972000Y-12478000D01*
X9972000Y-12652000D02*
X10052000Y-12732000D01*
X10052000Y-12652000D02*
X9972000Y-12732000D01*
X10290000Y-8052000D02*
X10370000Y-8132000D01*
X10370000Y-8052000D02*
X10290000Y-8132000D01*
X10290000Y-9068000D02*
X10370000Y-9148000D01*
X10370000Y-9068000D02*
X10290000Y-9148000D01*
X10360000Y-12952000D02*
X10440000Y-13032000D01*
X10440000Y-12952000D02*
X10360000Y-13032000D01*
X10360000Y-13968000D02*
X10440000Y-14048000D01*
X10440000Y-13968000D02*
X10360000Y-14048000D01*
X11165000Y-8052000D02*
X11245000Y-8132000D01*
X11245000Y-8052000D02*
X11165000Y-8132000D01*
X11165000Y-9068000D02*
X11245000Y-9148000D01*
X11245000Y-9068000D02*
X11165000Y-9148000D01*
X11652000Y-9333500D02*
X11732000Y-9413500D01*
X11732000Y-9333500D02*
X11652000Y-9413500D01*
X11652000Y-9587500D02*
X11732000Y-9667500D01*
X11732000Y-9587500D02*
X11652000Y-9667500D01*
X12414000Y-9333500D02*
X12494000Y-9413500D01*
X12494000Y-9333500D02*
X12414000Y-9413500D01*
X12414000Y-9587500D02*
X12494000Y-9667500D01*
X12494000Y-9587500D02*
X12414000Y-9667500D01*
X13115000Y-8052000D02*
X13195000Y-8132000D01*
X13195000Y-8052000D02*
X13115000Y-8132000D01*
X13115000Y-9068000D02*
X13195000Y-9148000D01*
X13195000Y-9068000D02*
X13115000Y-9148000D01*
X14460000Y-8021500D02*
X14540000Y-8101500D01*
X14540000Y-8021500D02*
X14460000Y-8101500D01*
X14460000Y-9037500D02*
X14540000Y-9117500D01*
X14540000Y-9037500D02*
X14460000Y-9117500D01*
X14898000Y-9203000D02*
X14978000Y-9283000D01*
X14978000Y-9203000D02*
X14898000Y-9283000D01*
X14898000Y-9457000D02*
X14978000Y-9537000D01*
X14978000Y-9457000D02*
X14898000Y-9537000D01*
X15660000Y-9203000D02*
X15740000Y-9283000D01*
X15740000Y-9203000D02*
X15660000Y-9283000D01*
X15660000Y-9457000D02*
X15740000Y-9537000D01*
X15740000Y-9457000D02*
X15660000Y-9537000D01*
X16460000Y-8021500D02*
X16540000Y-8101500D01*
X16540000Y-8021500D02*
X16460000Y-8101500D01*
X16460000Y-9037500D02*
X16540000Y-9117500D01*
X16540000Y-9037500D02*
X16460000Y-9117500D01*
X17310000Y-8021500D02*
X17390000Y-8101500D01*
X17390000Y-8021500D02*
X17310000Y-8101500D01*
X17310000Y-9037500D02*
X17390000Y-9117500D01*
X17390000Y-9037500D02*
X17310000Y-9117500D01*
X17703000Y-9178000D02*
X17783000Y-9258000D01*
X17783000Y-9178000D02*
X17703000Y-9258000D01*
X17703000Y-9432000D02*
X17783000Y-9512000D01*
X17783000Y-9432000D02*
X17703000Y-9512000D01*
X18465000Y-9178000D02*
X18545000Y-9258000D01*
X18545000Y-9178000D02*
X18465000Y-9258000D01*
X18465000Y-9432000D02*
X18545000Y-9512000D01*
X18545000Y-9432000D02*
X18465000Y-9512000D01*
X19310000Y-8021500D02*
X19390000Y-8101500D01*
X19390000Y-8021500D02*
X19310000Y-8101500D01*
X19310000Y-9037500D02*
X19390000Y-9117500D01*
X19390000Y-9037500D02*
X19310000Y-9117500D01*
X6545000Y-13146000D02*
G75*
G02*
X6455000Y-13146000I-45000J0D01*
G01*
X6455000Y-13146000D02*
G75*
G02*
X6545000Y-13146000I45000J0D01*
G01*
X6545000Y-13400000D02*
G75*
G02*
X6455000Y-13400000I-45000J0D01*
G01*
X6455000Y-13400000D02*
G75*
G02*
X6545000Y-13400000I45000J0D01*
G01*
X6870000Y-8600000D02*
G75*
G02*
X6780000Y-8600000I-45000J0D01*
G01*
X6780000Y-8600000D02*
G75*
G02*
X6870000Y-8600000I45000J0D01*
G01*
X6870000Y-8854000D02*
G75*
G02*
X6780000Y-8854000I-45000J0D01*
G01*
X6780000Y-8854000D02*
G75*
G02*
X6870000Y-8854000I45000J0D01*
G01*
X9295000Y-13146000D02*
G75*
G02*
X9205000Y-13146000I-45000J0D01*
G01*
X9205000Y-13146000D02*
G75*
G02*
X9295000Y-13146000I45000J0D01*
G01*
X9295000Y-13400000D02*
G75*
G02*
X9205000Y-13400000I-45000J0D01*
G01*
X9205000Y-13400000D02*
G75*
G02*
X9295000Y-13400000I45000J0D01*
G01*
X9675000Y-8600000D02*
G75*
G02*
X9585000Y-8600000I-45000J0D01*
G01*
X9585000Y-8600000D02*
G75*
G02*
X9675000Y-8600000I45000J0D01*
G01*
X9675000Y-8854000D02*
G75*
G02*
X9585000Y-8854000I-45000J0D01*
G01*
X9585000Y-8854000D02*
G75*
G02*
X9675000Y-8854000I45000J0D01*
G01*
X12500000Y-8600000D02*
G75*
G02*
X12410000Y-8600000I-45000J0D01*
G01*
X12410000Y-8600000D02*
G75*
G02*
X12500000Y-8600000I45000J0D01*
G01*
X12500000Y-8854000D02*
G75*
G02*
X12410000Y-8854000I-45000J0D01*
G01*
X12410000Y-8854000D02*
G75*
G02*
X12500000Y-8854000I45000J0D01*
G01*
X15745000Y-8565500D02*
G75*
G02*
X15655000Y-8565500I-45000J0D01*
G01*
X15655000Y-8565500D02*
G75*
G02*
X15745000Y-8565500I45000J0D01*
G01*
X15745000Y-8819500D02*
G75*
G02*
X15655000Y-8819500I-45000J0D01*
G01*
X15655000Y-8819500D02*
G75*
G02*
X15745000Y-8819500I45000J0D01*
G01*
X18545000Y-8565500D02*
G75*
G02*
X18455000Y-8565500I-45000J0D01*
G01*
X18455000Y-8565500D02*
G75*
G02*
X18545000Y-8565500I45000J0D01*
G01*
X18545000Y-8819500D02*
G75*
G02*
X18455000Y-8819500I-45000J0D01*
G01*
X18455000Y-8819500D02*
G75*
G02*
X18545000Y-8819500I45000J0D01*
G01*
D12*
X5669500Y-10685000D02*
X5669500Y-10815000D01*
X5604500Y-10750000D02*
X5734500Y-10750000D01*
X5669500Y-11185000D02*
X5669500Y-11315000D01*
X5604500Y-11250000D02*
X5734500Y-11250000D01*
X6375000Y-7604500D02*
X6375000Y-7734500D01*
X6310000Y-7669500D02*
X6440000Y-7669500D01*
X6400000Y-14261500D02*
X6400000Y-14391500D01*
X6335000Y-14326500D02*
X6465000Y-14326500D01*
X6875000Y-7604500D02*
X6875000Y-7734500D01*
X6810000Y-7669500D02*
X6940000Y-7669500D01*
X6900000Y-14261500D02*
X6900000Y-14391500D01*
X6835000Y-14326500D02*
X6965000Y-14326500D01*
X9175000Y-7604500D02*
X9175000Y-7734500D01*
X9110000Y-7669500D02*
X9240000Y-7669500D01*
X9200000Y-14231000D02*
X9200000Y-14361000D01*
X9135000Y-14296000D02*
X9265000Y-14296000D01*
X9675000Y-7604500D02*
X9675000Y-7734500D01*
X9610000Y-7669500D02*
X9740000Y-7669500D01*
X9700000Y-14231000D02*
X9700000Y-14361000D01*
X9635000Y-14296000D02*
X9765000Y-14296000D01*
X11350000Y-14235000D02*
X11350000Y-14365000D01*
X11285000Y-14300000D02*
X11415000Y-14300000D01*
X11850000Y-14235000D02*
X11850000Y-14365000D01*
X11785000Y-14300000D02*
X11915000Y-14300000D01*
X12005000Y-7604500D02*
X12005000Y-7734500D01*
X11940000Y-7669500D02*
X12070000Y-7669500D01*
X12505000Y-7604500D02*
X12505000Y-7734500D01*
X12440000Y-7669500D02*
X12570000Y-7669500D01*
X15200000Y-7604500D02*
X15200000Y-7734500D01*
X15135000Y-7669500D02*
X15265000Y-7669500D01*
X15700000Y-7604500D02*
X15700000Y-7734500D01*
X15635000Y-7669500D02*
X15765000Y-7669500D01*
X18000000Y-7574000D02*
X18000000Y-7704000D01*
X17935000Y-7639000D02*
X18065000Y-7639000D01*
X18500000Y-7574000D02*
X18500000Y-7704000D01*
X18435000Y-7639000D02*
X18565000Y-7639000D01*
D13*
X7295408Y-11065408D02*
X7295408Y-10934592D01*
X7164592Y-10934592D01*
X7164592Y-11065408D01*
X7295408Y-11065408D01*
X7765408Y-11065408D02*
X7765408Y-10934592D01*
X7634592Y-10934592D01*
X7634592Y-11065408D01*
X7765408Y-11065408D01*
X8235408Y-11065408D02*
X8235408Y-10934592D01*
X8104592Y-10934592D01*
X8104592Y-11065408D01*
X8235408Y-11065408D01*
D14*
X9700000Y-10725000D02*
X9825000Y-10600000D01*
X9700000Y-10475000D01*
X9575000Y-10600000D01*
X9700000Y-10725000D01*
X9700000Y-11625000D02*
X9825000Y-11500000D01*
X9700000Y-11375000D01*
X9575000Y-11500000D01*
X9700000Y-11625000D01*
X13700000Y-13125000D02*
X13825000Y-13000000D01*
X13700000Y-12875000D01*
X13575000Y-13000000D01*
X13700000Y-13125000D01*
X13700000Y-14025000D02*
X13825000Y-13900000D01*
X13700000Y-13775000D01*
X13575000Y-13900000D01*
X13700000Y-14025000D01*
D10*
X5206777Y-15338484D02*
X5206777Y-15138484D01*
X5206777Y-15138484D02*
X5254396Y-15138484D01*
X5254396Y-15138484D02*
X5282967Y-15148008D01*
X5282967Y-15148008D02*
X5302015Y-15167055D01*
X5302015Y-15167055D02*
X5311539Y-15186103D01*
X5311539Y-15186103D02*
X5321063Y-15224198D01*
X5321063Y-15224198D02*
X5321063Y-15252769D01*
X5321063Y-15252769D02*
X5311539Y-15290865D01*
X5311539Y-15290865D02*
X5302015Y-15309912D01*
X5302015Y-15309912D02*
X5282967Y-15328960D01*
X5282967Y-15328960D02*
X5254396Y-15338484D01*
X5254396Y-15338484D02*
X5206777Y-15338484D01*
X5406777Y-15338484D02*
X5406777Y-15205150D01*
X5406777Y-15243246D02*
X5416301Y-15224198D01*
X5416301Y-15224198D02*
X5425824Y-15214674D01*
X5425824Y-15214674D02*
X5444872Y-15205150D01*
X5444872Y-15205150D02*
X5463920Y-15205150D01*
X5530586Y-15338484D02*
X5530586Y-15205150D01*
X5530586Y-15138484D02*
X5521063Y-15148008D01*
X5521063Y-15148008D02*
X5530586Y-15157531D01*
X5530586Y-15157531D02*
X5540110Y-15148008D01*
X5540110Y-15148008D02*
X5530586Y-15138484D01*
X5530586Y-15138484D02*
X5530586Y-15157531D01*
X5654396Y-15338484D02*
X5635348Y-15328960D01*
X5635348Y-15328960D02*
X5625824Y-15309912D01*
X5625824Y-15309912D02*
X5625824Y-15138484D01*
X5759158Y-15338484D02*
X5740110Y-15328960D01*
X5740110Y-15328960D02*
X5730586Y-15309912D01*
X5730586Y-15309912D02*
X5730586Y-15138484D01*
X5987729Y-15338484D02*
X5987729Y-15138484D01*
X5987729Y-15138484D02*
X6054396Y-15281341D01*
X6054396Y-15281341D02*
X6121062Y-15138484D01*
X6121062Y-15138484D02*
X6121062Y-15338484D01*
X6302015Y-15338484D02*
X6302015Y-15233722D01*
X6302015Y-15233722D02*
X6292491Y-15214674D01*
X6292491Y-15214674D02*
X6273443Y-15205150D01*
X6273443Y-15205150D02*
X6235348Y-15205150D01*
X6235348Y-15205150D02*
X6216301Y-15214674D01*
X6302015Y-15328960D02*
X6282967Y-15338484D01*
X6282967Y-15338484D02*
X6235348Y-15338484D01*
X6235348Y-15338484D02*
X6216301Y-15328960D01*
X6216301Y-15328960D02*
X6206777Y-15309912D01*
X6206777Y-15309912D02*
X6206777Y-15290865D01*
X6206777Y-15290865D02*
X6216301Y-15271817D01*
X6216301Y-15271817D02*
X6235348Y-15262293D01*
X6235348Y-15262293D02*
X6282967Y-15262293D01*
X6282967Y-15262293D02*
X6302015Y-15252769D01*
X6397253Y-15205150D02*
X6397253Y-15405150D01*
X6397253Y-15214674D02*
X6416301Y-15205150D01*
X6416301Y-15205150D02*
X6454396Y-15205150D01*
X6454396Y-15205150D02*
X6473443Y-15214674D01*
X6473443Y-15214674D02*
X6482967Y-15224198D01*
X6482967Y-15224198D02*
X6492491Y-15243246D01*
X6492491Y-15243246D02*
X6492491Y-15300388D01*
X6492491Y-15300388D02*
X6482967Y-15319436D01*
X6482967Y-15319436D02*
X6473443Y-15328960D01*
X6473443Y-15328960D02*
X6454396Y-15338484D01*
X6454396Y-15338484D02*
X6416301Y-15338484D01*
X6416301Y-15338484D02*
X6397253Y-15328960D01*
X6578205Y-15319436D02*
X6587729Y-15328960D01*
X6587729Y-15328960D02*
X6578205Y-15338484D01*
X6578205Y-15338484D02*
X6568682Y-15328960D01*
X6568682Y-15328960D02*
X6578205Y-15319436D01*
X6578205Y-15319436D02*
X6578205Y-15338484D01*
X6578205Y-15214674D02*
X6587729Y-15224198D01*
X6587729Y-15224198D02*
X6578205Y-15233722D01*
X6578205Y-15233722D02*
X6568682Y-15224198D01*
X6568682Y-15224198D02*
X6578205Y-15214674D01*
X6578205Y-15214674D02*
X6578205Y-15233722D01*
D11*
X4866000Y-15627000D02*
X4946000Y-15707000D01*
X4946000Y-15627000D02*
X4866000Y-15707000D01*
D10*
X5244872Y-15558484D02*
X5263920Y-15558484D01*
X5263920Y-15558484D02*
X5282967Y-15568008D01*
X5282967Y-15568008D02*
X5292491Y-15577531D01*
X5292491Y-15577531D02*
X5302015Y-15596579D01*
X5302015Y-15596579D02*
X5311539Y-15634674D01*
X5311539Y-15634674D02*
X5311539Y-15682293D01*
X5311539Y-15682293D02*
X5302015Y-15720388D01*
X5302015Y-15720388D02*
X5292491Y-15739436D01*
X5292491Y-15739436D02*
X5282967Y-15748960D01*
X5282967Y-15748960D02*
X5263920Y-15758484D01*
X5263920Y-15758484D02*
X5244872Y-15758484D01*
X5244872Y-15758484D02*
X5225824Y-15748960D01*
X5225824Y-15748960D02*
X5216301Y-15739436D01*
X5216301Y-15739436D02*
X5206777Y-15720388D01*
X5206777Y-15720388D02*
X5197253Y-15682293D01*
X5197253Y-15682293D02*
X5197253Y-15634674D01*
X5197253Y-15634674D02*
X5206777Y-15596579D01*
X5206777Y-15596579D02*
X5216301Y-15577531D01*
X5216301Y-15577531D02*
X5225824Y-15568008D01*
X5225824Y-15568008D02*
X5244872Y-15558484D01*
X5397253Y-15739436D02*
X5406777Y-15748960D01*
X5406777Y-15748960D02*
X5397253Y-15758484D01*
X5397253Y-15758484D02*
X5387729Y-15748960D01*
X5387729Y-15748960D02*
X5397253Y-15739436D01*
X5397253Y-15739436D02*
X5397253Y-15758484D01*
X5521063Y-15644198D02*
X5502015Y-15634674D01*
X5502015Y-15634674D02*
X5492491Y-15625150D01*
X5492491Y-15625150D02*
X5482967Y-15606103D01*
X5482967Y-15606103D02*
X5482967Y-15596579D01*
X5482967Y-15596579D02*
X5492491Y-15577531D01*
X5492491Y-15577531D02*
X5502015Y-15568008D01*
X5502015Y-15568008D02*
X5521063Y-15558484D01*
X5521063Y-15558484D02*
X5559158Y-15558484D01*
X5559158Y-15558484D02*
X5578205Y-15568008D01*
X5578205Y-15568008D02*
X5587729Y-15577531D01*
X5587729Y-15577531D02*
X5597253Y-15596579D01*
X5597253Y-15596579D02*
X5597253Y-15606103D01*
X5597253Y-15606103D02*
X5587729Y-15625150D01*
X5587729Y-15625150D02*
X5578205Y-15634674D01*
X5578205Y-15634674D02*
X5559158Y-15644198D01*
X5559158Y-15644198D02*
X5521063Y-15644198D01*
X5521063Y-15644198D02*
X5502015Y-15653722D01*
X5502015Y-15653722D02*
X5492491Y-15663246D01*
X5492491Y-15663246D02*
X5482967Y-15682293D01*
X5482967Y-15682293D02*
X5482967Y-15720388D01*
X5482967Y-15720388D02*
X5492491Y-15739436D01*
X5492491Y-15739436D02*
X5502015Y-15748960D01*
X5502015Y-15748960D02*
X5521063Y-15758484D01*
X5521063Y-15758484D02*
X5559158Y-15758484D01*
X5559158Y-15758484D02*
X5578205Y-15748960D01*
X5578205Y-15748960D02*
X5587729Y-15739436D01*
X5587729Y-15739436D02*
X5597253Y-15720388D01*
X5597253Y-15720388D02*
X5597253Y-15682293D01*
X5597253Y-15682293D02*
X5587729Y-15663246D01*
X5587729Y-15663246D02*
X5578205Y-15653722D01*
X5578205Y-15653722D02*
X5559158Y-15644198D01*
X5721062Y-15558484D02*
X5740110Y-15558484D01*
X5740110Y-15558484D02*
X5759158Y-15568008D01*
X5759158Y-15568008D02*
X5768682Y-15577531D01*
X5768682Y-15577531D02*
X5778205Y-15596579D01*
X5778205Y-15596579D02*
X5787729Y-15634674D01*
X5787729Y-15634674D02*
X5787729Y-15682293D01*
X5787729Y-15682293D02*
X5778205Y-15720388D01*
X5778205Y-15720388D02*
X5768682Y-15739436D01*
X5768682Y-15739436D02*
X5759158Y-15748960D01*
X5759158Y-15748960D02*
X5740110Y-15758484D01*
X5740110Y-15758484D02*
X5721062Y-15758484D01*
X5721062Y-15758484D02*
X5702015Y-15748960D01*
X5702015Y-15748960D02*
X5692491Y-15739436D01*
X5692491Y-15739436D02*
X5682967Y-15720388D01*
X5682967Y-15720388D02*
X5673443Y-15682293D01*
X5673443Y-15682293D02*
X5673443Y-15634674D01*
X5673443Y-15634674D02*
X5682967Y-15596579D01*
X5682967Y-15596579D02*
X5692491Y-15577531D01*
X5692491Y-15577531D02*
X5702015Y-15568008D01*
X5702015Y-15568008D02*
X5721062Y-15558484D01*
X5911539Y-15558484D02*
X5930586Y-15558484D01*
X5930586Y-15558484D02*
X5949634Y-15568008D01*
X5949634Y-15568008D02*
X5959158Y-15577531D01*
X5959158Y-15577531D02*
X5968682Y-15596579D01*
X5968682Y-15596579D02*
X5978205Y-15634674D01*
X5978205Y-15634674D02*
X5978205Y-15682293D01*
X5978205Y-15682293D02*
X5968682Y-15720388D01*
X5968682Y-15720388D02*
X5959158Y-15739436D01*
X5959158Y-15739436D02*
X5949634Y-15748960D01*
X5949634Y-15748960D02*
X5930586Y-15758484D01*
X5930586Y-15758484D02*
X5911539Y-15758484D01*
X5911539Y-15758484D02*
X5892491Y-15748960D01*
X5892491Y-15748960D02*
X5882967Y-15739436D01*
X5882967Y-15739436D02*
X5873443Y-15720388D01*
X5873443Y-15720388D02*
X5863920Y-15682293D01*
X5863920Y-15682293D02*
X5863920Y-15634674D01*
X5863920Y-15634674D02*
X5873443Y-15596579D01*
X5873443Y-15596579D02*
X5882967Y-15577531D01*
X5882967Y-15577531D02*
X5892491Y-15568008D01*
X5892491Y-15568008D02*
X5911539Y-15558484D01*
X6063920Y-15758484D02*
X6063920Y-15625150D01*
X6063920Y-15644198D02*
X6073443Y-15634674D01*
X6073443Y-15634674D02*
X6092491Y-15625150D01*
X6092491Y-15625150D02*
X6121063Y-15625150D01*
X6121063Y-15625150D02*
X6140110Y-15634674D01*
X6140110Y-15634674D02*
X6149634Y-15653722D01*
X6149634Y-15653722D02*
X6149634Y-15758484D01*
X6149634Y-15653722D02*
X6159158Y-15634674D01*
X6159158Y-15634674D02*
X6178205Y-15625150D01*
X6178205Y-15625150D02*
X6206777Y-15625150D01*
X6206777Y-15625150D02*
X6225824Y-15634674D01*
X6225824Y-15634674D02*
X6235348Y-15653722D01*
X6235348Y-15653722D02*
X6235348Y-15758484D01*
X6330586Y-15758484D02*
X6330586Y-15625150D01*
X6330586Y-15644198D02*
X6340110Y-15634674D01*
X6340110Y-15634674D02*
X6359158Y-15625150D01*
X6359158Y-15625150D02*
X6387729Y-15625150D01*
X6387729Y-15625150D02*
X6406777Y-15634674D01*
X6406777Y-15634674D02*
X6416301Y-15653722D01*
X6416301Y-15653722D02*
X6416301Y-15758484D01*
X6416301Y-15653722D02*
X6425824Y-15634674D01*
X6425824Y-15634674D02*
X6444872Y-15625150D01*
X6444872Y-15625150D02*
X6473443Y-15625150D01*
X6473443Y-15625150D02*
X6492491Y-15634674D01*
X6492491Y-15634674D02*
X6502015Y-15653722D01*
X6502015Y-15653722D02*
X6502015Y-15758484D01*
X6892491Y-15548960D02*
X6721063Y-15806103D01*
X7149634Y-15558484D02*
X7168682Y-15558484D01*
X7168682Y-15558484D02*
X7187729Y-15568008D01*
X7187729Y-15568008D02*
X7197253Y-15577531D01*
X7197253Y-15577531D02*
X7206777Y-15596579D01*
X7206777Y-15596579D02*
X7216301Y-15634674D01*
X7216301Y-15634674D02*
X7216301Y-15682293D01*
X7216301Y-15682293D02*
X7206777Y-15720388D01*
X7206777Y-15720388D02*
X7197253Y-15739436D01*
X7197253Y-15739436D02*
X7187729Y-15748960D01*
X7187729Y-15748960D02*
X7168682Y-15758484D01*
X7168682Y-15758484D02*
X7149634Y-15758484D01*
X7149634Y-15758484D02*
X7130586Y-15748960D01*
X7130586Y-15748960D02*
X7121063Y-15739436D01*
X7121063Y-15739436D02*
X7111539Y-15720388D01*
X7111539Y-15720388D02*
X7102015Y-15682293D01*
X7102015Y-15682293D02*
X7102015Y-15634674D01*
X7102015Y-15634674D02*
X7111539Y-15596579D01*
X7111539Y-15596579D02*
X7121063Y-15577531D01*
X7121063Y-15577531D02*
X7130586Y-15568008D01*
X7130586Y-15568008D02*
X7149634Y-15558484D01*
X7302015Y-15739436D02*
X7311539Y-15748960D01*
X7311539Y-15748960D02*
X7302015Y-15758484D01*
X7302015Y-15758484D02*
X7292491Y-15748960D01*
X7292491Y-15748960D02*
X7302015Y-15739436D01*
X7302015Y-15739436D02*
X7302015Y-15758484D01*
X7435348Y-15558484D02*
X7454396Y-15558484D01*
X7454396Y-15558484D02*
X7473444Y-15568008D01*
X7473444Y-15568008D02*
X7482967Y-15577531D01*
X7482967Y-15577531D02*
X7492491Y-15596579D01*
X7492491Y-15596579D02*
X7502015Y-15634674D01*
X7502015Y-15634674D02*
X7502015Y-15682293D01*
X7502015Y-15682293D02*
X7492491Y-15720388D01*
X7492491Y-15720388D02*
X7482967Y-15739436D01*
X7482967Y-15739436D02*
X7473444Y-15748960D01*
X7473444Y-15748960D02*
X7454396Y-15758484D01*
X7454396Y-15758484D02*
X7435348Y-15758484D01*
X7435348Y-15758484D02*
X7416301Y-15748960D01*
X7416301Y-15748960D02*
X7406777Y-15739436D01*
X7406777Y-15739436D02*
X7397253Y-15720388D01*
X7397253Y-15720388D02*
X7387729Y-15682293D01*
X7387729Y-15682293D02*
X7387729Y-15634674D01*
X7387729Y-15634674D02*
X7397253Y-15596579D01*
X7397253Y-15596579D02*
X7406777Y-15577531D01*
X7406777Y-15577531D02*
X7416301Y-15568008D01*
X7416301Y-15568008D02*
X7435348Y-15558484D01*
X7568682Y-15558484D02*
X7692491Y-15558484D01*
X7692491Y-15558484D02*
X7625825Y-15634674D01*
X7625825Y-15634674D02*
X7654396Y-15634674D01*
X7654396Y-15634674D02*
X7673444Y-15644198D01*
X7673444Y-15644198D02*
X7682967Y-15653722D01*
X7682967Y-15653722D02*
X7692491Y-15672769D01*
X7692491Y-15672769D02*
X7692491Y-15720388D01*
X7692491Y-15720388D02*
X7682967Y-15739436D01*
X7682967Y-15739436D02*
X7673444Y-15748960D01*
X7673444Y-15748960D02*
X7654396Y-15758484D01*
X7654396Y-15758484D02*
X7597253Y-15758484D01*
X7597253Y-15758484D02*
X7578206Y-15748960D01*
X7578206Y-15748960D02*
X7568682Y-15739436D01*
X7882967Y-15758484D02*
X7768682Y-15758484D01*
X7825825Y-15758484D02*
X7825825Y-15558484D01*
X7825825Y-15558484D02*
X7806777Y-15587055D01*
X7806777Y-15587055D02*
X7787729Y-15606103D01*
X7787729Y-15606103D02*
X7768682Y-15615627D01*
X8063920Y-15558484D02*
X7968682Y-15558484D01*
X7968682Y-15558484D02*
X7959158Y-15653722D01*
X7959158Y-15653722D02*
X7968682Y-15644198D01*
X7968682Y-15644198D02*
X7987729Y-15634674D01*
X7987729Y-15634674D02*
X8035348Y-15634674D01*
X8035348Y-15634674D02*
X8054396Y-15644198D01*
X8054396Y-15644198D02*
X8063920Y-15653722D01*
X8063920Y-15653722D02*
X8073444Y-15672769D01*
X8073444Y-15672769D02*
X8073444Y-15720388D01*
X8073444Y-15720388D02*
X8063920Y-15739436D01*
X8063920Y-15739436D02*
X8054396Y-15748960D01*
X8054396Y-15748960D02*
X8035348Y-15758484D01*
X8035348Y-15758484D02*
X7987729Y-15758484D01*
X7987729Y-15758484D02*
X7968682Y-15748960D01*
X7968682Y-15748960D02*
X7959158Y-15739436D01*
X8149634Y-15558484D02*
X8149634Y-15596579D01*
X8225825Y-15558484D02*
X8225825Y-15596579D01*
X8521063Y-15834674D02*
X8511539Y-15825150D01*
X8511539Y-15825150D02*
X8492491Y-15796579D01*
X8492491Y-15796579D02*
X8482968Y-15777531D01*
X8482968Y-15777531D02*
X8473444Y-15748960D01*
X8473444Y-15748960D02*
X8463920Y-15701341D01*
X8463920Y-15701341D02*
X8463920Y-15663246D01*
X8463920Y-15663246D02*
X8473444Y-15615627D01*
X8473444Y-15615627D02*
X8482968Y-15587055D01*
X8482968Y-15587055D02*
X8492491Y-15568008D01*
X8492491Y-15568008D02*
X8511539Y-15539436D01*
X8511539Y-15539436D02*
X8521063Y-15529912D01*
X8692491Y-15558484D02*
X8597253Y-15558484D01*
X8597253Y-15558484D02*
X8587730Y-15653722D01*
X8587730Y-15653722D02*
X8597253Y-15644198D01*
X8597253Y-15644198D02*
X8616301Y-15634674D01*
X8616301Y-15634674D02*
X8663920Y-15634674D01*
X8663920Y-15634674D02*
X8682968Y-15644198D01*
X8682968Y-15644198D02*
X8692491Y-15653722D01*
X8692491Y-15653722D02*
X8702015Y-15672769D01*
X8702015Y-15672769D02*
X8702015Y-15720388D01*
X8702015Y-15720388D02*
X8692491Y-15739436D01*
X8692491Y-15739436D02*
X8682968Y-15748960D01*
X8682968Y-15748960D02*
X8663920Y-15758484D01*
X8663920Y-15758484D02*
X8616301Y-15758484D01*
X8616301Y-15758484D02*
X8597253Y-15748960D01*
X8597253Y-15748960D02*
X8587730Y-15739436D01*
X8873444Y-15558484D02*
X8835349Y-15558484D01*
X8835349Y-15558484D02*
X8816301Y-15568008D01*
X8816301Y-15568008D02*
X8806777Y-15577531D01*
X8806777Y-15577531D02*
X8787730Y-15606103D01*
X8787730Y-15606103D02*
X8778206Y-15644198D01*
X8778206Y-15644198D02*
X8778206Y-15720388D01*
X8778206Y-15720388D02*
X8787730Y-15739436D01*
X8787730Y-15739436D02*
X8797253Y-15748960D01*
X8797253Y-15748960D02*
X8816301Y-15758484D01*
X8816301Y-15758484D02*
X8854396Y-15758484D01*
X8854396Y-15758484D02*
X8873444Y-15748960D01*
X8873444Y-15748960D02*
X8882968Y-15739436D01*
X8882968Y-15739436D02*
X8892491Y-15720388D01*
X8892491Y-15720388D02*
X8892491Y-15672769D01*
X8892491Y-15672769D02*
X8882968Y-15653722D01*
X8882968Y-15653722D02*
X8873444Y-15644198D01*
X8873444Y-15644198D02*
X8854396Y-15634674D01*
X8854396Y-15634674D02*
X8816301Y-15634674D01*
X8816301Y-15634674D02*
X8797253Y-15644198D01*
X8797253Y-15644198D02*
X8787730Y-15653722D01*
X8787730Y-15653722D02*
X8778206Y-15672769D01*
X9130587Y-15758484D02*
X9130587Y-15558484D01*
X9216301Y-15758484D02*
X9216301Y-15653722D01*
X9216301Y-15653722D02*
X9206777Y-15634674D01*
X9206777Y-15634674D02*
X9187730Y-15625150D01*
X9187730Y-15625150D02*
X9159158Y-15625150D01*
X9159158Y-15625150D02*
X9140111Y-15634674D01*
X9140111Y-15634674D02*
X9130587Y-15644198D01*
X9340111Y-15758484D02*
X9321063Y-15748960D01*
X9321063Y-15748960D02*
X9311539Y-15739436D01*
X9311539Y-15739436D02*
X9302015Y-15720388D01*
X9302015Y-15720388D02*
X9302015Y-15663246D01*
X9302015Y-15663246D02*
X9311539Y-15644198D01*
X9311539Y-15644198D02*
X9321063Y-15634674D01*
X9321063Y-15634674D02*
X9340111Y-15625150D01*
X9340111Y-15625150D02*
X9368682Y-15625150D01*
X9368682Y-15625150D02*
X9387730Y-15634674D01*
X9387730Y-15634674D02*
X9397253Y-15644198D01*
X9397253Y-15644198D02*
X9406777Y-15663246D01*
X9406777Y-15663246D02*
X9406777Y-15720388D01*
X9406777Y-15720388D02*
X9397253Y-15739436D01*
X9397253Y-15739436D02*
X9387730Y-15748960D01*
X9387730Y-15748960D02*
X9368682Y-15758484D01*
X9368682Y-15758484D02*
X9340111Y-15758484D01*
X9521063Y-15758484D02*
X9502015Y-15748960D01*
X9502015Y-15748960D02*
X9492492Y-15729912D01*
X9492492Y-15729912D02*
X9492492Y-15558484D01*
X9673444Y-15748960D02*
X9654396Y-15758484D01*
X9654396Y-15758484D02*
X9616301Y-15758484D01*
X9616301Y-15758484D02*
X9597253Y-15748960D01*
X9597253Y-15748960D02*
X9587730Y-15729912D01*
X9587730Y-15729912D02*
X9587730Y-15653722D01*
X9587730Y-15653722D02*
X9597253Y-15634674D01*
X9597253Y-15634674D02*
X9616301Y-15625150D01*
X9616301Y-15625150D02*
X9654396Y-15625150D01*
X9654396Y-15625150D02*
X9673444Y-15634674D01*
X9673444Y-15634674D02*
X9682968Y-15653722D01*
X9682968Y-15653722D02*
X9682968Y-15672769D01*
X9682968Y-15672769D02*
X9587730Y-15691817D01*
X9759158Y-15748960D02*
X9778206Y-15758484D01*
X9778206Y-15758484D02*
X9816301Y-15758484D01*
X9816301Y-15758484D02*
X9835349Y-15748960D01*
X9835349Y-15748960D02*
X9844873Y-15729912D01*
X9844873Y-15729912D02*
X9844873Y-15720388D01*
X9844873Y-15720388D02*
X9835349Y-15701341D01*
X9835349Y-15701341D02*
X9816301Y-15691817D01*
X9816301Y-15691817D02*
X9787730Y-15691817D01*
X9787730Y-15691817D02*
X9768682Y-15682293D01*
X9768682Y-15682293D02*
X9759158Y-15663246D01*
X9759158Y-15663246D02*
X9759158Y-15653722D01*
X9759158Y-15653722D02*
X9768682Y-15634674D01*
X9768682Y-15634674D02*
X9787730Y-15625150D01*
X9787730Y-15625150D02*
X9816301Y-15625150D01*
X9816301Y-15625150D02*
X9835349Y-15634674D01*
X9911539Y-15834674D02*
X9921063Y-15825150D01*
X9921063Y-15825150D02*
X9940111Y-15796579D01*
X9940111Y-15796579D02*
X9949634Y-15777531D01*
X9949634Y-15777531D02*
X9959158Y-15748960D01*
X9959158Y-15748960D02*
X9968682Y-15701341D01*
X9968682Y-15701341D02*
X9968682Y-15663246D01*
X9968682Y-15663246D02*
X9959158Y-15615627D01*
X9959158Y-15615627D02*
X9949634Y-15587055D01*
X9949634Y-15587055D02*
X9940111Y-15568008D01*
X9940111Y-15568008D02*
X9921063Y-15539436D01*
X9921063Y-15539436D02*
X9911539Y-15529912D01*
D11*
X4946000Y-15931000D02*
G75*
G02*
X4856000Y-15931000I-45000J0D01*
G01*
X4856000Y-15931000D02*
G75*
G02*
X4946000Y-15931000I45000J0D01*
G01*
D10*
X5244872Y-15822484D02*
X5263920Y-15822484D01*
X5263920Y-15822484D02*
X5282967Y-15832008D01*
X5282967Y-15832008D02*
X5292491Y-15841531D01*
X5292491Y-15841531D02*
X5302015Y-15860579D01*
X5302015Y-15860579D02*
X5311539Y-15898674D01*
X5311539Y-15898674D02*
X5311539Y-15946293D01*
X5311539Y-15946293D02*
X5302015Y-15984388D01*
X5302015Y-15984388D02*
X5292491Y-16003436D01*
X5292491Y-16003436D02*
X5282967Y-16012960D01*
X5282967Y-16012960D02*
X5263920Y-16022484D01*
X5263920Y-16022484D02*
X5244872Y-16022484D01*
X5244872Y-16022484D02*
X5225824Y-16012960D01*
X5225824Y-16012960D02*
X5216301Y-16003436D01*
X5216301Y-16003436D02*
X5206777Y-15984388D01*
X5206777Y-15984388D02*
X5197253Y-15946293D01*
X5197253Y-15946293D02*
X5197253Y-15898674D01*
X5197253Y-15898674D02*
X5206777Y-15860579D01*
X5206777Y-15860579D02*
X5216301Y-15841531D01*
X5216301Y-15841531D02*
X5225824Y-15832008D01*
X5225824Y-15832008D02*
X5244872Y-15822484D01*
X5397253Y-16003436D02*
X5406777Y-16012960D01*
X5406777Y-16012960D02*
X5397253Y-16022484D01*
X5397253Y-16022484D02*
X5387729Y-16012960D01*
X5387729Y-16012960D02*
X5397253Y-16003436D01*
X5397253Y-16003436D02*
X5397253Y-16022484D01*
X5502015Y-16022484D02*
X5540110Y-16022484D01*
X5540110Y-16022484D02*
X5559158Y-16012960D01*
X5559158Y-16012960D02*
X5568682Y-16003436D01*
X5568682Y-16003436D02*
X5587729Y-15974865D01*
X5587729Y-15974865D02*
X5597253Y-15936769D01*
X5597253Y-15936769D02*
X5597253Y-15860579D01*
X5597253Y-15860579D02*
X5587729Y-15841531D01*
X5587729Y-15841531D02*
X5578205Y-15832008D01*
X5578205Y-15832008D02*
X5559158Y-15822484D01*
X5559158Y-15822484D02*
X5521063Y-15822484D01*
X5521063Y-15822484D02*
X5502015Y-15832008D01*
X5502015Y-15832008D02*
X5492491Y-15841531D01*
X5492491Y-15841531D02*
X5482967Y-15860579D01*
X5482967Y-15860579D02*
X5482967Y-15908198D01*
X5482967Y-15908198D02*
X5492491Y-15927246D01*
X5492491Y-15927246D02*
X5502015Y-15936769D01*
X5502015Y-15936769D02*
X5521063Y-15946293D01*
X5521063Y-15946293D02*
X5559158Y-15946293D01*
X5559158Y-15946293D02*
X5578205Y-15936769D01*
X5578205Y-15936769D02*
X5587729Y-15927246D01*
X5587729Y-15927246D02*
X5597253Y-15908198D01*
X5721062Y-15822484D02*
X5740110Y-15822484D01*
X5740110Y-15822484D02*
X5759158Y-15832008D01*
X5759158Y-15832008D02*
X5768682Y-15841531D01*
X5768682Y-15841531D02*
X5778205Y-15860579D01*
X5778205Y-15860579D02*
X5787729Y-15898674D01*
X5787729Y-15898674D02*
X5787729Y-15946293D01*
X5787729Y-15946293D02*
X5778205Y-15984388D01*
X5778205Y-15984388D02*
X5768682Y-16003436D01*
X5768682Y-16003436D02*
X5759158Y-16012960D01*
X5759158Y-16012960D02*
X5740110Y-16022484D01*
X5740110Y-16022484D02*
X5721062Y-16022484D01*
X5721062Y-16022484D02*
X5702015Y-16012960D01*
X5702015Y-16012960D02*
X5692491Y-16003436D01*
X5692491Y-16003436D02*
X5682967Y-15984388D01*
X5682967Y-15984388D02*
X5673443Y-15946293D01*
X5673443Y-15946293D02*
X5673443Y-15898674D01*
X5673443Y-15898674D02*
X5682967Y-15860579D01*
X5682967Y-15860579D02*
X5692491Y-15841531D01*
X5692491Y-15841531D02*
X5702015Y-15832008D01*
X5702015Y-15832008D02*
X5721062Y-15822484D01*
X5911539Y-15822484D02*
X5930586Y-15822484D01*
X5930586Y-15822484D02*
X5949634Y-15832008D01*
X5949634Y-15832008D02*
X5959158Y-15841531D01*
X5959158Y-15841531D02*
X5968682Y-15860579D01*
X5968682Y-15860579D02*
X5978205Y-15898674D01*
X5978205Y-15898674D02*
X5978205Y-15946293D01*
X5978205Y-15946293D02*
X5968682Y-15984388D01*
X5968682Y-15984388D02*
X5959158Y-16003436D01*
X5959158Y-16003436D02*
X5949634Y-16012960D01*
X5949634Y-16012960D02*
X5930586Y-16022484D01*
X5930586Y-16022484D02*
X5911539Y-16022484D01*
X5911539Y-16022484D02*
X5892491Y-16012960D01*
X5892491Y-16012960D02*
X5882967Y-16003436D01*
X5882967Y-16003436D02*
X5873443Y-15984388D01*
X5873443Y-15984388D02*
X5863920Y-15946293D01*
X5863920Y-15946293D02*
X5863920Y-15898674D01*
X5863920Y-15898674D02*
X5873443Y-15860579D01*
X5873443Y-15860579D02*
X5882967Y-15841531D01*
X5882967Y-15841531D02*
X5892491Y-15832008D01*
X5892491Y-15832008D02*
X5911539Y-15822484D01*
X6063920Y-16022484D02*
X6063920Y-15889150D01*
X6063920Y-15908198D02*
X6073443Y-15898674D01*
X6073443Y-15898674D02*
X6092491Y-15889150D01*
X6092491Y-15889150D02*
X6121063Y-15889150D01*
X6121063Y-15889150D02*
X6140110Y-15898674D01*
X6140110Y-15898674D02*
X6149634Y-15917722D01*
X6149634Y-15917722D02*
X6149634Y-16022484D01*
X6149634Y-15917722D02*
X6159158Y-15898674D01*
X6159158Y-15898674D02*
X6178205Y-15889150D01*
X6178205Y-15889150D02*
X6206777Y-15889150D01*
X6206777Y-15889150D02*
X6225824Y-15898674D01*
X6225824Y-15898674D02*
X6235348Y-15917722D01*
X6235348Y-15917722D02*
X6235348Y-16022484D01*
X6330586Y-16022484D02*
X6330586Y-15889150D01*
X6330586Y-15908198D02*
X6340110Y-15898674D01*
X6340110Y-15898674D02*
X6359158Y-15889150D01*
X6359158Y-15889150D02*
X6387729Y-15889150D01*
X6387729Y-15889150D02*
X6406777Y-15898674D01*
X6406777Y-15898674D02*
X6416301Y-15917722D01*
X6416301Y-15917722D02*
X6416301Y-16022484D01*
X6416301Y-15917722D02*
X6425824Y-15898674D01*
X6425824Y-15898674D02*
X6444872Y-15889150D01*
X6444872Y-15889150D02*
X6473443Y-15889150D01*
X6473443Y-15889150D02*
X6492491Y-15898674D01*
X6492491Y-15898674D02*
X6502015Y-15917722D01*
X6502015Y-15917722D02*
X6502015Y-16022484D01*
X6892491Y-15812960D02*
X6721063Y-16070103D01*
X7149634Y-15822484D02*
X7168682Y-15822484D01*
X7168682Y-15822484D02*
X7187729Y-15832008D01*
X7187729Y-15832008D02*
X7197253Y-15841531D01*
X7197253Y-15841531D02*
X7206777Y-15860579D01*
X7206777Y-15860579D02*
X7216301Y-15898674D01*
X7216301Y-15898674D02*
X7216301Y-15946293D01*
X7216301Y-15946293D02*
X7206777Y-15984388D01*
X7206777Y-15984388D02*
X7197253Y-16003436D01*
X7197253Y-16003436D02*
X7187729Y-16012960D01*
X7187729Y-16012960D02*
X7168682Y-16022484D01*
X7168682Y-16022484D02*
X7149634Y-16022484D01*
X7149634Y-16022484D02*
X7130586Y-16012960D01*
X7130586Y-16012960D02*
X7121063Y-16003436D01*
X7121063Y-16003436D02*
X7111539Y-15984388D01*
X7111539Y-15984388D02*
X7102015Y-15946293D01*
X7102015Y-15946293D02*
X7102015Y-15898674D01*
X7102015Y-15898674D02*
X7111539Y-15860579D01*
X7111539Y-15860579D02*
X7121063Y-15841531D01*
X7121063Y-15841531D02*
X7130586Y-15832008D01*
X7130586Y-15832008D02*
X7149634Y-15822484D01*
X7302015Y-16003436D02*
X7311539Y-16012960D01*
X7311539Y-16012960D02*
X7302015Y-16022484D01*
X7302015Y-16022484D02*
X7292491Y-16012960D01*
X7292491Y-16012960D02*
X7302015Y-16003436D01*
X7302015Y-16003436D02*
X7302015Y-16022484D01*
X7435348Y-15822484D02*
X7454396Y-15822484D01*
X7454396Y-15822484D02*
X7473444Y-15832008D01*
X7473444Y-15832008D02*
X7482967Y-15841531D01*
X7482967Y-15841531D02*
X7492491Y-15860579D01*
X7492491Y-15860579D02*
X7502015Y-15898674D01*
X7502015Y-15898674D02*
X7502015Y-15946293D01*
X7502015Y-15946293D02*
X7492491Y-15984388D01*
X7492491Y-15984388D02*
X7482967Y-16003436D01*
X7482967Y-16003436D02*
X7473444Y-16012960D01*
X7473444Y-16012960D02*
X7454396Y-16022484D01*
X7454396Y-16022484D02*
X7435348Y-16022484D01*
X7435348Y-16022484D02*
X7416301Y-16012960D01*
X7416301Y-16012960D02*
X7406777Y-16003436D01*
X7406777Y-16003436D02*
X7397253Y-15984388D01*
X7397253Y-15984388D02*
X7387729Y-15946293D01*
X7387729Y-15946293D02*
X7387729Y-15898674D01*
X7387729Y-15898674D02*
X7397253Y-15860579D01*
X7397253Y-15860579D02*
X7406777Y-15841531D01*
X7406777Y-15841531D02*
X7416301Y-15832008D01*
X7416301Y-15832008D02*
X7435348Y-15822484D01*
X7568682Y-15822484D02*
X7692491Y-15822484D01*
X7692491Y-15822484D02*
X7625825Y-15898674D01*
X7625825Y-15898674D02*
X7654396Y-15898674D01*
X7654396Y-15898674D02*
X7673444Y-15908198D01*
X7673444Y-15908198D02*
X7682967Y-15917722D01*
X7682967Y-15917722D02*
X7692491Y-15936769D01*
X7692491Y-15936769D02*
X7692491Y-15984388D01*
X7692491Y-15984388D02*
X7682967Y-16003436D01*
X7682967Y-16003436D02*
X7673444Y-16012960D01*
X7673444Y-16012960D02*
X7654396Y-16022484D01*
X7654396Y-16022484D02*
X7597253Y-16022484D01*
X7597253Y-16022484D02*
X7578206Y-16012960D01*
X7578206Y-16012960D02*
X7568682Y-16003436D01*
X7873444Y-15822484D02*
X7778206Y-15822484D01*
X7778206Y-15822484D02*
X7768682Y-15917722D01*
X7768682Y-15917722D02*
X7778206Y-15908198D01*
X7778206Y-15908198D02*
X7797253Y-15898674D01*
X7797253Y-15898674D02*
X7844872Y-15898674D01*
X7844872Y-15898674D02*
X7863920Y-15908198D01*
X7863920Y-15908198D02*
X7873444Y-15917722D01*
X7873444Y-15917722D02*
X7882967Y-15936769D01*
X7882967Y-15936769D02*
X7882967Y-15984388D01*
X7882967Y-15984388D02*
X7873444Y-16003436D01*
X7873444Y-16003436D02*
X7863920Y-16012960D01*
X7863920Y-16012960D02*
X7844872Y-16022484D01*
X7844872Y-16022484D02*
X7797253Y-16022484D01*
X7797253Y-16022484D02*
X7778206Y-16012960D01*
X7778206Y-16012960D02*
X7768682Y-16003436D01*
X8054396Y-15889150D02*
X8054396Y-16022484D01*
X8006777Y-15812960D02*
X7959158Y-15955817D01*
X7959158Y-15955817D02*
X8082967Y-15955817D01*
X8149634Y-15822484D02*
X8149634Y-15860579D01*
X8225825Y-15822484D02*
X8225825Y-15860579D01*
X8521063Y-16098674D02*
X8511539Y-16089150D01*
X8511539Y-16089150D02*
X8492491Y-16060579D01*
X8492491Y-16060579D02*
X8482968Y-16041531D01*
X8482968Y-16041531D02*
X8473444Y-16012960D01*
X8473444Y-16012960D02*
X8463920Y-15965341D01*
X8463920Y-15965341D02*
X8463920Y-15927246D01*
X8463920Y-15927246D02*
X8473444Y-15879627D01*
X8473444Y-15879627D02*
X8482968Y-15851055D01*
X8482968Y-15851055D02*
X8492491Y-15832008D01*
X8492491Y-15832008D02*
X8511539Y-15803436D01*
X8511539Y-15803436D02*
X8521063Y-15793912D01*
X8702015Y-16022484D02*
X8587730Y-16022484D01*
X8644872Y-16022484D02*
X8644872Y-15822484D01*
X8644872Y-15822484D02*
X8625825Y-15851055D01*
X8625825Y-15851055D02*
X8606777Y-15870103D01*
X8606777Y-15870103D02*
X8587730Y-15879627D01*
X8873444Y-15889150D02*
X8873444Y-16022484D01*
X8825825Y-15812960D02*
X8778206Y-15955817D01*
X8778206Y-15955817D02*
X8902015Y-15955817D01*
X9130587Y-16022484D02*
X9130587Y-15822484D01*
X9216301Y-16022484D02*
X9216301Y-15917722D01*
X9216301Y-15917722D02*
X9206777Y-15898674D01*
X9206777Y-15898674D02*
X9187730Y-15889150D01*
X9187730Y-15889150D02*
X9159158Y-15889150D01*
X9159158Y-15889150D02*
X9140111Y-15898674D01*
X9140111Y-15898674D02*
X9130587Y-15908198D01*
X9340111Y-16022484D02*
X9321063Y-16012960D01*
X9321063Y-16012960D02*
X9311539Y-16003436D01*
X9311539Y-16003436D02*
X9302015Y-15984388D01*
X9302015Y-15984388D02*
X9302015Y-15927246D01*
X9302015Y-15927246D02*
X9311539Y-15908198D01*
X9311539Y-15908198D02*
X9321063Y-15898674D01*
X9321063Y-15898674D02*
X9340111Y-15889150D01*
X9340111Y-15889150D02*
X9368682Y-15889150D01*
X9368682Y-15889150D02*
X9387730Y-15898674D01*
X9387730Y-15898674D02*
X9397253Y-15908198D01*
X9397253Y-15908198D02*
X9406777Y-15927246D01*
X9406777Y-15927246D02*
X9406777Y-15984388D01*
X9406777Y-15984388D02*
X9397253Y-16003436D01*
X9397253Y-16003436D02*
X9387730Y-16012960D01*
X9387730Y-16012960D02*
X9368682Y-16022484D01*
X9368682Y-16022484D02*
X9340111Y-16022484D01*
X9521063Y-16022484D02*
X9502015Y-16012960D01*
X9502015Y-16012960D02*
X9492492Y-15993912D01*
X9492492Y-15993912D02*
X9492492Y-15822484D01*
X9673444Y-16012960D02*
X9654396Y-16022484D01*
X9654396Y-16022484D02*
X9616301Y-16022484D01*
X9616301Y-16022484D02*
X9597253Y-16012960D01*
X9597253Y-16012960D02*
X9587730Y-15993912D01*
X9587730Y-15993912D02*
X9587730Y-15917722D01*
X9587730Y-15917722D02*
X9597253Y-15898674D01*
X9597253Y-15898674D02*
X9616301Y-15889150D01*
X9616301Y-15889150D02*
X9654396Y-15889150D01*
X9654396Y-15889150D02*
X9673444Y-15898674D01*
X9673444Y-15898674D02*
X9682968Y-15917722D01*
X9682968Y-15917722D02*
X9682968Y-15936769D01*
X9682968Y-15936769D02*
X9587730Y-15955817D01*
X9759158Y-16012960D02*
X9778206Y-16022484D01*
X9778206Y-16022484D02*
X9816301Y-16022484D01*
X9816301Y-16022484D02*
X9835349Y-16012960D01*
X9835349Y-16012960D02*
X9844873Y-15993912D01*
X9844873Y-15993912D02*
X9844873Y-15984388D01*
X9844873Y-15984388D02*
X9835349Y-15965341D01*
X9835349Y-15965341D02*
X9816301Y-15955817D01*
X9816301Y-15955817D02*
X9787730Y-15955817D01*
X9787730Y-15955817D02*
X9768682Y-15946293D01*
X9768682Y-15946293D02*
X9759158Y-15927246D01*
X9759158Y-15927246D02*
X9759158Y-15917722D01*
X9759158Y-15917722D02*
X9768682Y-15898674D01*
X9768682Y-15898674D02*
X9787730Y-15889150D01*
X9787730Y-15889150D02*
X9816301Y-15889150D01*
X9816301Y-15889150D02*
X9835349Y-15898674D01*
X9911539Y-16098674D02*
X9921063Y-16089150D01*
X9921063Y-16089150D02*
X9940111Y-16060579D01*
X9940111Y-16060579D02*
X9949634Y-16041531D01*
X9949634Y-16041531D02*
X9959158Y-16012960D01*
X9959158Y-16012960D02*
X9968682Y-15965341D01*
X9968682Y-15965341D02*
X9968682Y-15927246D01*
X9968682Y-15927246D02*
X9959158Y-15879627D01*
X9959158Y-15879627D02*
X9949634Y-15851055D01*
X9949634Y-15851055D02*
X9940111Y-15832008D01*
X9940111Y-15832008D02*
X9921063Y-15803436D01*
X9921063Y-15803436D02*
X9911539Y-15793912D01*
D12*
X4881000Y-16130000D02*
X4881000Y-16260000D01*
X4816000Y-16195000D02*
X4946000Y-16195000D01*
D10*
X5311539Y-16286484D02*
X5197253Y-16286484D01*
X5254396Y-16286484D02*
X5254396Y-16086484D01*
X5254396Y-16086484D02*
X5235348Y-16115055D01*
X5235348Y-16115055D02*
X5216301Y-16134103D01*
X5216301Y-16134103D02*
X5197253Y-16143627D01*
X5397253Y-16267436D02*
X5406777Y-16276960D01*
X5406777Y-16276960D02*
X5397253Y-16286484D01*
X5397253Y-16286484D02*
X5387729Y-16276960D01*
X5387729Y-16276960D02*
X5397253Y-16267436D01*
X5397253Y-16267436D02*
X5397253Y-16286484D01*
X5473444Y-16086484D02*
X5597253Y-16086484D01*
X5597253Y-16086484D02*
X5530586Y-16162674D01*
X5530586Y-16162674D02*
X5559158Y-16162674D01*
X5559158Y-16162674D02*
X5578205Y-16172198D01*
X5578205Y-16172198D02*
X5587729Y-16181722D01*
X5587729Y-16181722D02*
X5597253Y-16200769D01*
X5597253Y-16200769D02*
X5597253Y-16248388D01*
X5597253Y-16248388D02*
X5587729Y-16267436D01*
X5587729Y-16267436D02*
X5578205Y-16276960D01*
X5578205Y-16276960D02*
X5559158Y-16286484D01*
X5559158Y-16286484D02*
X5502015Y-16286484D01*
X5502015Y-16286484D02*
X5482967Y-16276960D01*
X5482967Y-16276960D02*
X5473444Y-16267436D01*
X5721062Y-16086484D02*
X5740110Y-16086484D01*
X5740110Y-16086484D02*
X5759158Y-16096008D01*
X5759158Y-16096008D02*
X5768682Y-16105531D01*
X5768682Y-16105531D02*
X5778205Y-16124579D01*
X5778205Y-16124579D02*
X5787729Y-16162674D01*
X5787729Y-16162674D02*
X5787729Y-16210293D01*
X5787729Y-16210293D02*
X5778205Y-16248388D01*
X5778205Y-16248388D02*
X5768682Y-16267436D01*
X5768682Y-16267436D02*
X5759158Y-16276960D01*
X5759158Y-16276960D02*
X5740110Y-16286484D01*
X5740110Y-16286484D02*
X5721062Y-16286484D01*
X5721062Y-16286484D02*
X5702015Y-16276960D01*
X5702015Y-16276960D02*
X5692491Y-16267436D01*
X5692491Y-16267436D02*
X5682967Y-16248388D01*
X5682967Y-16248388D02*
X5673443Y-16210293D01*
X5673443Y-16210293D02*
X5673443Y-16162674D01*
X5673443Y-16162674D02*
X5682967Y-16124579D01*
X5682967Y-16124579D02*
X5692491Y-16105531D01*
X5692491Y-16105531D02*
X5702015Y-16096008D01*
X5702015Y-16096008D02*
X5721062Y-16086484D01*
X5911539Y-16086484D02*
X5930586Y-16086484D01*
X5930586Y-16086484D02*
X5949634Y-16096008D01*
X5949634Y-16096008D02*
X5959158Y-16105531D01*
X5959158Y-16105531D02*
X5968682Y-16124579D01*
X5968682Y-16124579D02*
X5978205Y-16162674D01*
X5978205Y-16162674D02*
X5978205Y-16210293D01*
X5978205Y-16210293D02*
X5968682Y-16248388D01*
X5968682Y-16248388D02*
X5959158Y-16267436D01*
X5959158Y-16267436D02*
X5949634Y-16276960D01*
X5949634Y-16276960D02*
X5930586Y-16286484D01*
X5930586Y-16286484D02*
X5911539Y-16286484D01*
X5911539Y-16286484D02*
X5892491Y-16276960D01*
X5892491Y-16276960D02*
X5882967Y-16267436D01*
X5882967Y-16267436D02*
X5873443Y-16248388D01*
X5873443Y-16248388D02*
X5863920Y-16210293D01*
X5863920Y-16210293D02*
X5863920Y-16162674D01*
X5863920Y-16162674D02*
X5873443Y-16124579D01*
X5873443Y-16124579D02*
X5882967Y-16105531D01*
X5882967Y-16105531D02*
X5892491Y-16096008D01*
X5892491Y-16096008D02*
X5911539Y-16086484D01*
X6063920Y-16286484D02*
X6063920Y-16153150D01*
X6063920Y-16172198D02*
X6073443Y-16162674D01*
X6073443Y-16162674D02*
X6092491Y-16153150D01*
X6092491Y-16153150D02*
X6121063Y-16153150D01*
X6121063Y-16153150D02*
X6140110Y-16162674D01*
X6140110Y-16162674D02*
X6149634Y-16181722D01*
X6149634Y-16181722D02*
X6149634Y-16286484D01*
X6149634Y-16181722D02*
X6159158Y-16162674D01*
X6159158Y-16162674D02*
X6178205Y-16153150D01*
X6178205Y-16153150D02*
X6206777Y-16153150D01*
X6206777Y-16153150D02*
X6225824Y-16162674D01*
X6225824Y-16162674D02*
X6235348Y-16181722D01*
X6235348Y-16181722D02*
X6235348Y-16286484D01*
X6330586Y-16286484D02*
X6330586Y-16153150D01*
X6330586Y-16172198D02*
X6340110Y-16162674D01*
X6340110Y-16162674D02*
X6359158Y-16153150D01*
X6359158Y-16153150D02*
X6387729Y-16153150D01*
X6387729Y-16153150D02*
X6406777Y-16162674D01*
X6406777Y-16162674D02*
X6416301Y-16181722D01*
X6416301Y-16181722D02*
X6416301Y-16286484D01*
X6416301Y-16181722D02*
X6425824Y-16162674D01*
X6425824Y-16162674D02*
X6444872Y-16153150D01*
X6444872Y-16153150D02*
X6473443Y-16153150D01*
X6473443Y-16153150D02*
X6492491Y-16162674D01*
X6492491Y-16162674D02*
X6502015Y-16181722D01*
X6502015Y-16181722D02*
X6502015Y-16286484D01*
X6892491Y-16076960D02*
X6721063Y-16334103D01*
X7149634Y-16086484D02*
X7168682Y-16086484D01*
X7168682Y-16086484D02*
X7187729Y-16096008D01*
X7187729Y-16096008D02*
X7197253Y-16105531D01*
X7197253Y-16105531D02*
X7206777Y-16124579D01*
X7206777Y-16124579D02*
X7216301Y-16162674D01*
X7216301Y-16162674D02*
X7216301Y-16210293D01*
X7216301Y-16210293D02*
X7206777Y-16248388D01*
X7206777Y-16248388D02*
X7197253Y-16267436D01*
X7197253Y-16267436D02*
X7187729Y-16276960D01*
X7187729Y-16276960D02*
X7168682Y-16286484D01*
X7168682Y-16286484D02*
X7149634Y-16286484D01*
X7149634Y-16286484D02*
X7130586Y-16276960D01*
X7130586Y-16276960D02*
X7121063Y-16267436D01*
X7121063Y-16267436D02*
X7111539Y-16248388D01*
X7111539Y-16248388D02*
X7102015Y-16210293D01*
X7102015Y-16210293D02*
X7102015Y-16162674D01*
X7102015Y-16162674D02*
X7111539Y-16124579D01*
X7111539Y-16124579D02*
X7121063Y-16105531D01*
X7121063Y-16105531D02*
X7130586Y-16096008D01*
X7130586Y-16096008D02*
X7149634Y-16086484D01*
X7302015Y-16267436D02*
X7311539Y-16276960D01*
X7311539Y-16276960D02*
X7302015Y-16286484D01*
X7302015Y-16286484D02*
X7292491Y-16276960D01*
X7292491Y-16276960D02*
X7302015Y-16267436D01*
X7302015Y-16267436D02*
X7302015Y-16286484D01*
X7435348Y-16086484D02*
X7454396Y-16086484D01*
X7454396Y-16086484D02*
X7473444Y-16096008D01*
X7473444Y-16096008D02*
X7482967Y-16105531D01*
X7482967Y-16105531D02*
X7492491Y-16124579D01*
X7492491Y-16124579D02*
X7502015Y-16162674D01*
X7502015Y-16162674D02*
X7502015Y-16210293D01*
X7502015Y-16210293D02*
X7492491Y-16248388D01*
X7492491Y-16248388D02*
X7482967Y-16267436D01*
X7482967Y-16267436D02*
X7473444Y-16276960D01*
X7473444Y-16276960D02*
X7454396Y-16286484D01*
X7454396Y-16286484D02*
X7435348Y-16286484D01*
X7435348Y-16286484D02*
X7416301Y-16276960D01*
X7416301Y-16276960D02*
X7406777Y-16267436D01*
X7406777Y-16267436D02*
X7397253Y-16248388D01*
X7397253Y-16248388D02*
X7387729Y-16210293D01*
X7387729Y-16210293D02*
X7387729Y-16162674D01*
X7387729Y-16162674D02*
X7397253Y-16124579D01*
X7397253Y-16124579D02*
X7406777Y-16105531D01*
X7406777Y-16105531D02*
X7416301Y-16096008D01*
X7416301Y-16096008D02*
X7435348Y-16086484D01*
X7682967Y-16086484D02*
X7587729Y-16086484D01*
X7587729Y-16086484D02*
X7578206Y-16181722D01*
X7578206Y-16181722D02*
X7587729Y-16172198D01*
X7587729Y-16172198D02*
X7606777Y-16162674D01*
X7606777Y-16162674D02*
X7654396Y-16162674D01*
X7654396Y-16162674D02*
X7673444Y-16172198D01*
X7673444Y-16172198D02*
X7682967Y-16181722D01*
X7682967Y-16181722D02*
X7692491Y-16200769D01*
X7692491Y-16200769D02*
X7692491Y-16248388D01*
X7692491Y-16248388D02*
X7682967Y-16267436D01*
X7682967Y-16267436D02*
X7673444Y-16276960D01*
X7673444Y-16276960D02*
X7654396Y-16286484D01*
X7654396Y-16286484D02*
X7606777Y-16286484D01*
X7606777Y-16286484D02*
X7587729Y-16276960D01*
X7587729Y-16276960D02*
X7578206Y-16267436D01*
X7882967Y-16286484D02*
X7768682Y-16286484D01*
X7825825Y-16286484D02*
X7825825Y-16086484D01*
X7825825Y-16086484D02*
X7806777Y-16115055D01*
X7806777Y-16115055D02*
X7787729Y-16134103D01*
X7787729Y-16134103D02*
X7768682Y-16143627D01*
X7959158Y-16105531D02*
X7968682Y-16096008D01*
X7968682Y-16096008D02*
X7987729Y-16086484D01*
X7987729Y-16086484D02*
X8035348Y-16086484D01*
X8035348Y-16086484D02*
X8054396Y-16096008D01*
X8054396Y-16096008D02*
X8063920Y-16105531D01*
X8063920Y-16105531D02*
X8073444Y-16124579D01*
X8073444Y-16124579D02*
X8073444Y-16143627D01*
X8073444Y-16143627D02*
X8063920Y-16172198D01*
X8063920Y-16172198D02*
X7949634Y-16286484D01*
X7949634Y-16286484D02*
X8073444Y-16286484D01*
X8149634Y-16086484D02*
X8149634Y-16124579D01*
X8225825Y-16086484D02*
X8225825Y-16124579D01*
X8521063Y-16362674D02*
X8511539Y-16353150D01*
X8511539Y-16353150D02*
X8492491Y-16324579D01*
X8492491Y-16324579D02*
X8482968Y-16305531D01*
X8482968Y-16305531D02*
X8473444Y-16276960D01*
X8473444Y-16276960D02*
X8463920Y-16229341D01*
X8463920Y-16229341D02*
X8463920Y-16191246D01*
X8463920Y-16191246D02*
X8473444Y-16143627D01*
X8473444Y-16143627D02*
X8482968Y-16115055D01*
X8482968Y-16115055D02*
X8492491Y-16096008D01*
X8492491Y-16096008D02*
X8511539Y-16067436D01*
X8511539Y-16067436D02*
X8521063Y-16057912D01*
X8702015Y-16286484D02*
X8587730Y-16286484D01*
X8644872Y-16286484D02*
X8644872Y-16086484D01*
X8644872Y-16086484D02*
X8625825Y-16115055D01*
X8625825Y-16115055D02*
X8606777Y-16134103D01*
X8606777Y-16134103D02*
X8587730Y-16143627D01*
X8816301Y-16172198D02*
X8797253Y-16162674D01*
X8797253Y-16162674D02*
X8787730Y-16153150D01*
X8787730Y-16153150D02*
X8778206Y-16134103D01*
X8778206Y-16134103D02*
X8778206Y-16124579D01*
X8778206Y-16124579D02*
X8787730Y-16105531D01*
X8787730Y-16105531D02*
X8797253Y-16096008D01*
X8797253Y-16096008D02*
X8816301Y-16086484D01*
X8816301Y-16086484D02*
X8854396Y-16086484D01*
X8854396Y-16086484D02*
X8873444Y-16096008D01*
X8873444Y-16096008D02*
X8882968Y-16105531D01*
X8882968Y-16105531D02*
X8892491Y-16124579D01*
X8892491Y-16124579D02*
X8892491Y-16134103D01*
X8892491Y-16134103D02*
X8882968Y-16153150D01*
X8882968Y-16153150D02*
X8873444Y-16162674D01*
X8873444Y-16162674D02*
X8854396Y-16172198D01*
X8854396Y-16172198D02*
X8816301Y-16172198D01*
X8816301Y-16172198D02*
X8797253Y-16181722D01*
X8797253Y-16181722D02*
X8787730Y-16191246D01*
X8787730Y-16191246D02*
X8778206Y-16210293D01*
X8778206Y-16210293D02*
X8778206Y-16248388D01*
X8778206Y-16248388D02*
X8787730Y-16267436D01*
X8787730Y-16267436D02*
X8797253Y-16276960D01*
X8797253Y-16276960D02*
X8816301Y-16286484D01*
X8816301Y-16286484D02*
X8854396Y-16286484D01*
X8854396Y-16286484D02*
X8873444Y-16276960D01*
X8873444Y-16276960D02*
X8882968Y-16267436D01*
X8882968Y-16267436D02*
X8892491Y-16248388D01*
X8892491Y-16248388D02*
X8892491Y-16210293D01*
X8892491Y-16210293D02*
X8882968Y-16191246D01*
X8882968Y-16191246D02*
X8873444Y-16181722D01*
X8873444Y-16181722D02*
X8854396Y-16172198D01*
X9130587Y-16286484D02*
X9130587Y-16086484D01*
X9216301Y-16286484D02*
X9216301Y-16181722D01*
X9216301Y-16181722D02*
X9206777Y-16162674D01*
X9206777Y-16162674D02*
X9187730Y-16153150D01*
X9187730Y-16153150D02*
X9159158Y-16153150D01*
X9159158Y-16153150D02*
X9140111Y-16162674D01*
X9140111Y-16162674D02*
X9130587Y-16172198D01*
X9340111Y-16286484D02*
X9321063Y-16276960D01*
X9321063Y-16276960D02*
X9311539Y-16267436D01*
X9311539Y-16267436D02*
X9302015Y-16248388D01*
X9302015Y-16248388D02*
X9302015Y-16191246D01*
X9302015Y-16191246D02*
X9311539Y-16172198D01*
X9311539Y-16172198D02*
X9321063Y-16162674D01*
X9321063Y-16162674D02*
X9340111Y-16153150D01*
X9340111Y-16153150D02*
X9368682Y-16153150D01*
X9368682Y-16153150D02*
X9387730Y-16162674D01*
X9387730Y-16162674D02*
X9397253Y-16172198D01*
X9397253Y-16172198D02*
X9406777Y-16191246D01*
X9406777Y-16191246D02*
X9406777Y-16248388D01*
X9406777Y-16248388D02*
X9397253Y-16267436D01*
X9397253Y-16267436D02*
X9387730Y-16276960D01*
X9387730Y-16276960D02*
X9368682Y-16286484D01*
X9368682Y-16286484D02*
X9340111Y-16286484D01*
X9521063Y-16286484D02*
X9502015Y-16276960D01*
X9502015Y-16276960D02*
X9492492Y-16257912D01*
X9492492Y-16257912D02*
X9492492Y-16086484D01*
X9673444Y-16276960D02*
X9654396Y-16286484D01*
X9654396Y-16286484D02*
X9616301Y-16286484D01*
X9616301Y-16286484D02*
X9597253Y-16276960D01*
X9597253Y-16276960D02*
X9587730Y-16257912D01*
X9587730Y-16257912D02*
X9587730Y-16181722D01*
X9587730Y-16181722D02*
X9597253Y-16162674D01*
X9597253Y-16162674D02*
X9616301Y-16153150D01*
X9616301Y-16153150D02*
X9654396Y-16153150D01*
X9654396Y-16153150D02*
X9673444Y-16162674D01*
X9673444Y-16162674D02*
X9682968Y-16181722D01*
X9682968Y-16181722D02*
X9682968Y-16200769D01*
X9682968Y-16200769D02*
X9587730Y-16219817D01*
X9759158Y-16276960D02*
X9778206Y-16286484D01*
X9778206Y-16286484D02*
X9816301Y-16286484D01*
X9816301Y-16286484D02*
X9835349Y-16276960D01*
X9835349Y-16276960D02*
X9844873Y-16257912D01*
X9844873Y-16257912D02*
X9844873Y-16248388D01*
X9844873Y-16248388D02*
X9835349Y-16229341D01*
X9835349Y-16229341D02*
X9816301Y-16219817D01*
X9816301Y-16219817D02*
X9787730Y-16219817D01*
X9787730Y-16219817D02*
X9768682Y-16210293D01*
X9768682Y-16210293D02*
X9759158Y-16191246D01*
X9759158Y-16191246D02*
X9759158Y-16181722D01*
X9759158Y-16181722D02*
X9768682Y-16162674D01*
X9768682Y-16162674D02*
X9787730Y-16153150D01*
X9787730Y-16153150D02*
X9816301Y-16153150D01*
X9816301Y-16153150D02*
X9835349Y-16162674D01*
X9911539Y-16362674D02*
X9921063Y-16353150D01*
X9921063Y-16353150D02*
X9940111Y-16324579D01*
X9940111Y-16324579D02*
X9949634Y-16305531D01*
X9949634Y-16305531D02*
X9959158Y-16276960D01*
X9959158Y-16276960D02*
X9968682Y-16229341D01*
X9968682Y-16229341D02*
X9968682Y-16191246D01*
X9968682Y-16191246D02*
X9959158Y-16143627D01*
X9959158Y-16143627D02*
X9949634Y-16115055D01*
X9949634Y-16115055D02*
X9940111Y-16096008D01*
X9940111Y-16096008D02*
X9921063Y-16067436D01*
X9921063Y-16067436D02*
X9911539Y-16057912D01*
D13*
X4918908Y-16524408D02*
X4918908Y-16393592D01*
X4788092Y-16393592D01*
X4788092Y-16524408D01*
X4918908Y-16524408D01*
D10*
X5311539Y-16550484D02*
X5197253Y-16550484D01*
X5254396Y-16550484D02*
X5254396Y-16350484D01*
X5254396Y-16350484D02*
X5235348Y-16379055D01*
X5235348Y-16379055D02*
X5216301Y-16398103D01*
X5216301Y-16398103D02*
X5197253Y-16407627D01*
X5397253Y-16531436D02*
X5406777Y-16540960D01*
X5406777Y-16540960D02*
X5397253Y-16550484D01*
X5397253Y-16550484D02*
X5387729Y-16540960D01*
X5387729Y-16540960D02*
X5397253Y-16531436D01*
X5397253Y-16531436D02*
X5397253Y-16550484D01*
X5521063Y-16436198D02*
X5502015Y-16426674D01*
X5502015Y-16426674D02*
X5492491Y-16417150D01*
X5492491Y-16417150D02*
X5482967Y-16398103D01*
X5482967Y-16398103D02*
X5482967Y-16388579D01*
X5482967Y-16388579D02*
X5492491Y-16369531D01*
X5492491Y-16369531D02*
X5502015Y-16360008D01*
X5502015Y-16360008D02*
X5521063Y-16350484D01*
X5521063Y-16350484D02*
X5559158Y-16350484D01*
X5559158Y-16350484D02*
X5578205Y-16360008D01*
X5578205Y-16360008D02*
X5587729Y-16369531D01*
X5587729Y-16369531D02*
X5597253Y-16388579D01*
X5597253Y-16388579D02*
X5597253Y-16398103D01*
X5597253Y-16398103D02*
X5587729Y-16417150D01*
X5587729Y-16417150D02*
X5578205Y-16426674D01*
X5578205Y-16426674D02*
X5559158Y-16436198D01*
X5559158Y-16436198D02*
X5521063Y-16436198D01*
X5521063Y-16436198D02*
X5502015Y-16445722D01*
X5502015Y-16445722D02*
X5492491Y-16455246D01*
X5492491Y-16455246D02*
X5482967Y-16474293D01*
X5482967Y-16474293D02*
X5482967Y-16512388D01*
X5482967Y-16512388D02*
X5492491Y-16531436D01*
X5492491Y-16531436D02*
X5502015Y-16540960D01*
X5502015Y-16540960D02*
X5521063Y-16550484D01*
X5521063Y-16550484D02*
X5559158Y-16550484D01*
X5559158Y-16550484D02*
X5578205Y-16540960D01*
X5578205Y-16540960D02*
X5587729Y-16531436D01*
X5587729Y-16531436D02*
X5597253Y-16512388D01*
X5597253Y-16512388D02*
X5597253Y-16474293D01*
X5597253Y-16474293D02*
X5587729Y-16455246D01*
X5587729Y-16455246D02*
X5578205Y-16445722D01*
X5578205Y-16445722D02*
X5559158Y-16436198D01*
X5778205Y-16350484D02*
X5682967Y-16350484D01*
X5682967Y-16350484D02*
X5673443Y-16445722D01*
X5673443Y-16445722D02*
X5682967Y-16436198D01*
X5682967Y-16436198D02*
X5702015Y-16426674D01*
X5702015Y-16426674D02*
X5749634Y-16426674D01*
X5749634Y-16426674D02*
X5768682Y-16436198D01*
X5768682Y-16436198D02*
X5778205Y-16445722D01*
X5778205Y-16445722D02*
X5787729Y-16464769D01*
X5787729Y-16464769D02*
X5787729Y-16512388D01*
X5787729Y-16512388D02*
X5778205Y-16531436D01*
X5778205Y-16531436D02*
X5768682Y-16540960D01*
X5768682Y-16540960D02*
X5749634Y-16550484D01*
X5749634Y-16550484D02*
X5702015Y-16550484D01*
X5702015Y-16550484D02*
X5682967Y-16540960D01*
X5682967Y-16540960D02*
X5673443Y-16531436D01*
X5911539Y-16350484D02*
X5930586Y-16350484D01*
X5930586Y-16350484D02*
X5949634Y-16360008D01*
X5949634Y-16360008D02*
X5959158Y-16369531D01*
X5959158Y-16369531D02*
X5968682Y-16388579D01*
X5968682Y-16388579D02*
X5978205Y-16426674D01*
X5978205Y-16426674D02*
X5978205Y-16474293D01*
X5978205Y-16474293D02*
X5968682Y-16512388D01*
X5968682Y-16512388D02*
X5959158Y-16531436D01*
X5959158Y-16531436D02*
X5949634Y-16540960D01*
X5949634Y-16540960D02*
X5930586Y-16550484D01*
X5930586Y-16550484D02*
X5911539Y-16550484D01*
X5911539Y-16550484D02*
X5892491Y-16540960D01*
X5892491Y-16540960D02*
X5882967Y-16531436D01*
X5882967Y-16531436D02*
X5873443Y-16512388D01*
X5873443Y-16512388D02*
X5863920Y-16474293D01*
X5863920Y-16474293D02*
X5863920Y-16426674D01*
X5863920Y-16426674D02*
X5873443Y-16388579D01*
X5873443Y-16388579D02*
X5882967Y-16369531D01*
X5882967Y-16369531D02*
X5892491Y-16360008D01*
X5892491Y-16360008D02*
X5911539Y-16350484D01*
X6063920Y-16550484D02*
X6063920Y-16417150D01*
X6063920Y-16436198D02*
X6073443Y-16426674D01*
X6073443Y-16426674D02*
X6092491Y-16417150D01*
X6092491Y-16417150D02*
X6121063Y-16417150D01*
X6121063Y-16417150D02*
X6140110Y-16426674D01*
X6140110Y-16426674D02*
X6149634Y-16445722D01*
X6149634Y-16445722D02*
X6149634Y-16550484D01*
X6149634Y-16445722D02*
X6159158Y-16426674D01*
X6159158Y-16426674D02*
X6178205Y-16417150D01*
X6178205Y-16417150D02*
X6206777Y-16417150D01*
X6206777Y-16417150D02*
X6225824Y-16426674D01*
X6225824Y-16426674D02*
X6235348Y-16445722D01*
X6235348Y-16445722D02*
X6235348Y-16550484D01*
X6330586Y-16550484D02*
X6330586Y-16417150D01*
X6330586Y-16436198D02*
X6340110Y-16426674D01*
X6340110Y-16426674D02*
X6359158Y-16417150D01*
X6359158Y-16417150D02*
X6387729Y-16417150D01*
X6387729Y-16417150D02*
X6406777Y-16426674D01*
X6406777Y-16426674D02*
X6416301Y-16445722D01*
X6416301Y-16445722D02*
X6416301Y-16550484D01*
X6416301Y-16445722D02*
X6425824Y-16426674D01*
X6425824Y-16426674D02*
X6444872Y-16417150D01*
X6444872Y-16417150D02*
X6473443Y-16417150D01*
X6473443Y-16417150D02*
X6492491Y-16426674D01*
X6492491Y-16426674D02*
X6502015Y-16445722D01*
X6502015Y-16445722D02*
X6502015Y-16550484D01*
X6892491Y-16340960D02*
X6721063Y-16598103D01*
X7149634Y-16350484D02*
X7168682Y-16350484D01*
X7168682Y-16350484D02*
X7187729Y-16360008D01*
X7187729Y-16360008D02*
X7197253Y-16369531D01*
X7197253Y-16369531D02*
X7206777Y-16388579D01*
X7206777Y-16388579D02*
X7216301Y-16426674D01*
X7216301Y-16426674D02*
X7216301Y-16474293D01*
X7216301Y-16474293D02*
X7206777Y-16512388D01*
X7206777Y-16512388D02*
X7197253Y-16531436D01*
X7197253Y-16531436D02*
X7187729Y-16540960D01*
X7187729Y-16540960D02*
X7168682Y-16550484D01*
X7168682Y-16550484D02*
X7149634Y-16550484D01*
X7149634Y-16550484D02*
X7130586Y-16540960D01*
X7130586Y-16540960D02*
X7121063Y-16531436D01*
X7121063Y-16531436D02*
X7111539Y-16512388D01*
X7111539Y-16512388D02*
X7102015Y-16474293D01*
X7102015Y-16474293D02*
X7102015Y-16426674D01*
X7102015Y-16426674D02*
X7111539Y-16388579D01*
X7111539Y-16388579D02*
X7121063Y-16369531D01*
X7121063Y-16369531D02*
X7130586Y-16360008D01*
X7130586Y-16360008D02*
X7149634Y-16350484D01*
X7302015Y-16531436D02*
X7311539Y-16540960D01*
X7311539Y-16540960D02*
X7302015Y-16550484D01*
X7302015Y-16550484D02*
X7292491Y-16540960D01*
X7292491Y-16540960D02*
X7302015Y-16531436D01*
X7302015Y-16531436D02*
X7302015Y-16550484D01*
X7435348Y-16350484D02*
X7454396Y-16350484D01*
X7454396Y-16350484D02*
X7473444Y-16360008D01*
X7473444Y-16360008D02*
X7482967Y-16369531D01*
X7482967Y-16369531D02*
X7492491Y-16388579D01*
X7492491Y-16388579D02*
X7502015Y-16426674D01*
X7502015Y-16426674D02*
X7502015Y-16474293D01*
X7502015Y-16474293D02*
X7492491Y-16512388D01*
X7492491Y-16512388D02*
X7482967Y-16531436D01*
X7482967Y-16531436D02*
X7473444Y-16540960D01*
X7473444Y-16540960D02*
X7454396Y-16550484D01*
X7454396Y-16550484D02*
X7435348Y-16550484D01*
X7435348Y-16550484D02*
X7416301Y-16540960D01*
X7416301Y-16540960D02*
X7406777Y-16531436D01*
X7406777Y-16531436D02*
X7397253Y-16512388D01*
X7397253Y-16512388D02*
X7387729Y-16474293D01*
X7387729Y-16474293D02*
X7387729Y-16426674D01*
X7387729Y-16426674D02*
X7397253Y-16388579D01*
X7397253Y-16388579D02*
X7406777Y-16369531D01*
X7406777Y-16369531D02*
X7416301Y-16360008D01*
X7416301Y-16360008D02*
X7435348Y-16350484D01*
X7568682Y-16350484D02*
X7702015Y-16350484D01*
X7702015Y-16350484D02*
X7616301Y-16550484D01*
X7768682Y-16369531D02*
X7778206Y-16360008D01*
X7778206Y-16360008D02*
X7797253Y-16350484D01*
X7797253Y-16350484D02*
X7844872Y-16350484D01*
X7844872Y-16350484D02*
X7863920Y-16360008D01*
X7863920Y-16360008D02*
X7873444Y-16369531D01*
X7873444Y-16369531D02*
X7882967Y-16388579D01*
X7882967Y-16388579D02*
X7882967Y-16407627D01*
X7882967Y-16407627D02*
X7873444Y-16436198D01*
X7873444Y-16436198D02*
X7759158Y-16550484D01*
X7759158Y-16550484D02*
X7882967Y-16550484D01*
X7997253Y-16436198D02*
X7978206Y-16426674D01*
X7978206Y-16426674D02*
X7968682Y-16417150D01*
X7968682Y-16417150D02*
X7959158Y-16398103D01*
X7959158Y-16398103D02*
X7959158Y-16388579D01*
X7959158Y-16388579D02*
X7968682Y-16369531D01*
X7968682Y-16369531D02*
X7978206Y-16360008D01*
X7978206Y-16360008D02*
X7997253Y-16350484D01*
X7997253Y-16350484D02*
X8035348Y-16350484D01*
X8035348Y-16350484D02*
X8054396Y-16360008D01*
X8054396Y-16360008D02*
X8063920Y-16369531D01*
X8063920Y-16369531D02*
X8073444Y-16388579D01*
X8073444Y-16388579D02*
X8073444Y-16398103D01*
X8073444Y-16398103D02*
X8063920Y-16417150D01*
X8063920Y-16417150D02*
X8054396Y-16426674D01*
X8054396Y-16426674D02*
X8035348Y-16436198D01*
X8035348Y-16436198D02*
X7997253Y-16436198D01*
X7997253Y-16436198D02*
X7978206Y-16445722D01*
X7978206Y-16445722D02*
X7968682Y-16455246D01*
X7968682Y-16455246D02*
X7959158Y-16474293D01*
X7959158Y-16474293D02*
X7959158Y-16512388D01*
X7959158Y-16512388D02*
X7968682Y-16531436D01*
X7968682Y-16531436D02*
X7978206Y-16540960D01*
X7978206Y-16540960D02*
X7997253Y-16550484D01*
X7997253Y-16550484D02*
X8035348Y-16550484D01*
X8035348Y-16550484D02*
X8054396Y-16540960D01*
X8054396Y-16540960D02*
X8063920Y-16531436D01*
X8063920Y-16531436D02*
X8073444Y-16512388D01*
X8073444Y-16512388D02*
X8073444Y-16474293D01*
X8073444Y-16474293D02*
X8063920Y-16455246D01*
X8063920Y-16455246D02*
X8054396Y-16445722D01*
X8054396Y-16445722D02*
X8035348Y-16436198D01*
X8149634Y-16350484D02*
X8149634Y-16388579D01*
X8225825Y-16350484D02*
X8225825Y-16388579D01*
X8521063Y-16626674D02*
X8511539Y-16617150D01*
X8511539Y-16617150D02*
X8492491Y-16588579D01*
X8492491Y-16588579D02*
X8482968Y-16569531D01*
X8482968Y-16569531D02*
X8473444Y-16540960D01*
X8473444Y-16540960D02*
X8463920Y-16493341D01*
X8463920Y-16493341D02*
X8463920Y-16455246D01*
X8463920Y-16455246D02*
X8473444Y-16407627D01*
X8473444Y-16407627D02*
X8482968Y-16379055D01*
X8482968Y-16379055D02*
X8492491Y-16360008D01*
X8492491Y-16360008D02*
X8511539Y-16331436D01*
X8511539Y-16331436D02*
X8521063Y-16321912D01*
X8578206Y-16350484D02*
X8702015Y-16350484D01*
X8702015Y-16350484D02*
X8635349Y-16426674D01*
X8635349Y-16426674D02*
X8663920Y-16426674D01*
X8663920Y-16426674D02*
X8682968Y-16436198D01*
X8682968Y-16436198D02*
X8692491Y-16445722D01*
X8692491Y-16445722D02*
X8702015Y-16464769D01*
X8702015Y-16464769D02*
X8702015Y-16512388D01*
X8702015Y-16512388D02*
X8692491Y-16531436D01*
X8692491Y-16531436D02*
X8682968Y-16540960D01*
X8682968Y-16540960D02*
X8663920Y-16550484D01*
X8663920Y-16550484D02*
X8606777Y-16550484D01*
X8606777Y-16550484D02*
X8587730Y-16540960D01*
X8587730Y-16540960D02*
X8578206Y-16531436D01*
X8940111Y-16550484D02*
X8940111Y-16350484D01*
X9025825Y-16550484D02*
X9025825Y-16445722D01*
X9025825Y-16445722D02*
X9016301Y-16426674D01*
X9016301Y-16426674D02*
X8997253Y-16417150D01*
X8997253Y-16417150D02*
X8968682Y-16417150D01*
X8968682Y-16417150D02*
X8949634Y-16426674D01*
X8949634Y-16426674D02*
X8940111Y-16436198D01*
X9149634Y-16550484D02*
X9130587Y-16540960D01*
X9130587Y-16540960D02*
X9121063Y-16531436D01*
X9121063Y-16531436D02*
X9111539Y-16512388D01*
X9111539Y-16512388D02*
X9111539Y-16455246D01*
X9111539Y-16455246D02*
X9121063Y-16436198D01*
X9121063Y-16436198D02*
X9130587Y-16426674D01*
X9130587Y-16426674D02*
X9149634Y-16417150D01*
X9149634Y-16417150D02*
X9178206Y-16417150D01*
X9178206Y-16417150D02*
X9197253Y-16426674D01*
X9197253Y-16426674D02*
X9206777Y-16436198D01*
X9206777Y-16436198D02*
X9216301Y-16455246D01*
X9216301Y-16455246D02*
X9216301Y-16512388D01*
X9216301Y-16512388D02*
X9206777Y-16531436D01*
X9206777Y-16531436D02*
X9197253Y-16540960D01*
X9197253Y-16540960D02*
X9178206Y-16550484D01*
X9178206Y-16550484D02*
X9149634Y-16550484D01*
X9330587Y-16550484D02*
X9311539Y-16540960D01*
X9311539Y-16540960D02*
X9302015Y-16521912D01*
X9302015Y-16521912D02*
X9302015Y-16350484D01*
X9482968Y-16540960D02*
X9463920Y-16550484D01*
X9463920Y-16550484D02*
X9425825Y-16550484D01*
X9425825Y-16550484D02*
X9406777Y-16540960D01*
X9406777Y-16540960D02*
X9397253Y-16521912D01*
X9397253Y-16521912D02*
X9397253Y-16445722D01*
X9397253Y-16445722D02*
X9406777Y-16426674D01*
X9406777Y-16426674D02*
X9425825Y-16417150D01*
X9425825Y-16417150D02*
X9463920Y-16417150D01*
X9463920Y-16417150D02*
X9482968Y-16426674D01*
X9482968Y-16426674D02*
X9492492Y-16445722D01*
X9492492Y-16445722D02*
X9492492Y-16464769D01*
X9492492Y-16464769D02*
X9397253Y-16483817D01*
X9568682Y-16540960D02*
X9587730Y-16550484D01*
X9587730Y-16550484D02*
X9625825Y-16550484D01*
X9625825Y-16550484D02*
X9644873Y-16540960D01*
X9644873Y-16540960D02*
X9654396Y-16521912D01*
X9654396Y-16521912D02*
X9654396Y-16512388D01*
X9654396Y-16512388D02*
X9644873Y-16493341D01*
X9644873Y-16493341D02*
X9625825Y-16483817D01*
X9625825Y-16483817D02*
X9597253Y-16483817D01*
X9597253Y-16483817D02*
X9578206Y-16474293D01*
X9578206Y-16474293D02*
X9568682Y-16455246D01*
X9568682Y-16455246D02*
X9568682Y-16445722D01*
X9568682Y-16445722D02*
X9578206Y-16426674D01*
X9578206Y-16426674D02*
X9597253Y-16417150D01*
X9597253Y-16417150D02*
X9625825Y-16417150D01*
X9625825Y-16417150D02*
X9644873Y-16426674D01*
X9721063Y-16626674D02*
X9730587Y-16617150D01*
X9730587Y-16617150D02*
X9749634Y-16588579D01*
X9749634Y-16588579D02*
X9759158Y-16569531D01*
X9759158Y-16569531D02*
X9768682Y-16540960D01*
X9768682Y-16540960D02*
X9778206Y-16493341D01*
X9778206Y-16493341D02*
X9778206Y-16455246D01*
X9778206Y-16455246D02*
X9768682Y-16407627D01*
X9768682Y-16407627D02*
X9759158Y-16379055D01*
X9759158Y-16379055D02*
X9749634Y-16360008D01*
X9749634Y-16360008D02*
X9730587Y-16331436D01*
X9730587Y-16331436D02*
X9721063Y-16321912D01*
X4846000Y-16864000D02*
X4946000Y-16764000D01*
X4846000Y-16664000D01*
X4746000Y-16764000D01*
X4846000Y-16864000D01*
X5197253Y-16674531D02*
X5206777Y-16665008D01*
X5206777Y-16665008D02*
X5225824Y-16655484D01*
X5225824Y-16655484D02*
X5273444Y-16655484D01*
X5273444Y-16655484D02*
X5292491Y-16665008D01*
X5292491Y-16665008D02*
X5302015Y-16674531D01*
X5302015Y-16674531D02*
X5311539Y-16693579D01*
X5311539Y-16693579D02*
X5311539Y-16712627D01*
X5311539Y-16712627D02*
X5302015Y-16741198D01*
X5302015Y-16741198D02*
X5187729Y-16855484D01*
X5187729Y-16855484D02*
X5311539Y-16855484D01*
X5397253Y-16836436D02*
X5406777Y-16845960D01*
X5406777Y-16845960D02*
X5397253Y-16855484D01*
X5397253Y-16855484D02*
X5387729Y-16845960D01*
X5387729Y-16845960D02*
X5397253Y-16836436D01*
X5397253Y-16836436D02*
X5397253Y-16855484D01*
X5587729Y-16655484D02*
X5492491Y-16655484D01*
X5492491Y-16655484D02*
X5482967Y-16750722D01*
X5482967Y-16750722D02*
X5492491Y-16741198D01*
X5492491Y-16741198D02*
X5511539Y-16731674D01*
X5511539Y-16731674D02*
X5559158Y-16731674D01*
X5559158Y-16731674D02*
X5578205Y-16741198D01*
X5578205Y-16741198D02*
X5587729Y-16750722D01*
X5587729Y-16750722D02*
X5597253Y-16769769D01*
X5597253Y-16769769D02*
X5597253Y-16817389D01*
X5597253Y-16817389D02*
X5587729Y-16836436D01*
X5587729Y-16836436D02*
X5578205Y-16845960D01*
X5578205Y-16845960D02*
X5559158Y-16855484D01*
X5559158Y-16855484D02*
X5511539Y-16855484D01*
X5511539Y-16855484D02*
X5492491Y-16845960D01*
X5492491Y-16845960D02*
X5482967Y-16836436D01*
X5721062Y-16655484D02*
X5740110Y-16655484D01*
X5740110Y-16655484D02*
X5759158Y-16665008D01*
X5759158Y-16665008D02*
X5768682Y-16674531D01*
X5768682Y-16674531D02*
X5778205Y-16693579D01*
X5778205Y-16693579D02*
X5787729Y-16731674D01*
X5787729Y-16731674D02*
X5787729Y-16779293D01*
X5787729Y-16779293D02*
X5778205Y-16817389D01*
X5778205Y-16817389D02*
X5768682Y-16836436D01*
X5768682Y-16836436D02*
X5759158Y-16845960D01*
X5759158Y-16845960D02*
X5740110Y-16855484D01*
X5740110Y-16855484D02*
X5721062Y-16855484D01*
X5721062Y-16855484D02*
X5702015Y-16845960D01*
X5702015Y-16845960D02*
X5692491Y-16836436D01*
X5692491Y-16836436D02*
X5682967Y-16817389D01*
X5682967Y-16817389D02*
X5673443Y-16779293D01*
X5673443Y-16779293D02*
X5673443Y-16731674D01*
X5673443Y-16731674D02*
X5682967Y-16693579D01*
X5682967Y-16693579D02*
X5692491Y-16674531D01*
X5692491Y-16674531D02*
X5702015Y-16665008D01*
X5702015Y-16665008D02*
X5721062Y-16655484D01*
X5911539Y-16655484D02*
X5930586Y-16655484D01*
X5930586Y-16655484D02*
X5949634Y-16665008D01*
X5949634Y-16665008D02*
X5959158Y-16674531D01*
X5959158Y-16674531D02*
X5968682Y-16693579D01*
X5968682Y-16693579D02*
X5978205Y-16731674D01*
X5978205Y-16731674D02*
X5978205Y-16779293D01*
X5978205Y-16779293D02*
X5968682Y-16817389D01*
X5968682Y-16817389D02*
X5959158Y-16836436D01*
X5959158Y-16836436D02*
X5949634Y-16845960D01*
X5949634Y-16845960D02*
X5930586Y-16855484D01*
X5930586Y-16855484D02*
X5911539Y-16855484D01*
X5911539Y-16855484D02*
X5892491Y-16845960D01*
X5892491Y-16845960D02*
X5882967Y-16836436D01*
X5882967Y-16836436D02*
X5873443Y-16817389D01*
X5873443Y-16817389D02*
X5863920Y-16779293D01*
X5863920Y-16779293D02*
X5863920Y-16731674D01*
X5863920Y-16731674D02*
X5873443Y-16693579D01*
X5873443Y-16693579D02*
X5882967Y-16674531D01*
X5882967Y-16674531D02*
X5892491Y-16665008D01*
X5892491Y-16665008D02*
X5911539Y-16655484D01*
X6063920Y-16855484D02*
X6063920Y-16722150D01*
X6063920Y-16741198D02*
X6073443Y-16731674D01*
X6073443Y-16731674D02*
X6092491Y-16722150D01*
X6092491Y-16722150D02*
X6121063Y-16722150D01*
X6121063Y-16722150D02*
X6140110Y-16731674D01*
X6140110Y-16731674D02*
X6149634Y-16750722D01*
X6149634Y-16750722D02*
X6149634Y-16855484D01*
X6149634Y-16750722D02*
X6159158Y-16731674D01*
X6159158Y-16731674D02*
X6178205Y-16722150D01*
X6178205Y-16722150D02*
X6206777Y-16722150D01*
X6206777Y-16722150D02*
X6225824Y-16731674D01*
X6225824Y-16731674D02*
X6235348Y-16750722D01*
X6235348Y-16750722D02*
X6235348Y-16855484D01*
X6330586Y-16855484D02*
X6330586Y-16722150D01*
X6330586Y-16741198D02*
X6340110Y-16731674D01*
X6340110Y-16731674D02*
X6359158Y-16722150D01*
X6359158Y-16722150D02*
X6387729Y-16722150D01*
X6387729Y-16722150D02*
X6406777Y-16731674D01*
X6406777Y-16731674D02*
X6416301Y-16750722D01*
X6416301Y-16750722D02*
X6416301Y-16855484D01*
X6416301Y-16750722D02*
X6425824Y-16731674D01*
X6425824Y-16731674D02*
X6444872Y-16722150D01*
X6444872Y-16722150D02*
X6473443Y-16722150D01*
X6473443Y-16722150D02*
X6492491Y-16731674D01*
X6492491Y-16731674D02*
X6502015Y-16750722D01*
X6502015Y-16750722D02*
X6502015Y-16855484D01*
X6892491Y-16645960D02*
X6721063Y-16903103D01*
X7149634Y-16655484D02*
X7168682Y-16655484D01*
X7168682Y-16655484D02*
X7187729Y-16665008D01*
X7187729Y-16665008D02*
X7197253Y-16674531D01*
X7197253Y-16674531D02*
X7206777Y-16693579D01*
X7206777Y-16693579D02*
X7216301Y-16731674D01*
X7216301Y-16731674D02*
X7216301Y-16779293D01*
X7216301Y-16779293D02*
X7206777Y-16817389D01*
X7206777Y-16817389D02*
X7197253Y-16836436D01*
X7197253Y-16836436D02*
X7187729Y-16845960D01*
X7187729Y-16845960D02*
X7168682Y-16855484D01*
X7168682Y-16855484D02*
X7149634Y-16855484D01*
X7149634Y-16855484D02*
X7130586Y-16845960D01*
X7130586Y-16845960D02*
X7121063Y-16836436D01*
X7121063Y-16836436D02*
X7111539Y-16817389D01*
X7111539Y-16817389D02*
X7102015Y-16779293D01*
X7102015Y-16779293D02*
X7102015Y-16731674D01*
X7102015Y-16731674D02*
X7111539Y-16693579D01*
X7111539Y-16693579D02*
X7121063Y-16674531D01*
X7121063Y-16674531D02*
X7130586Y-16665008D01*
X7130586Y-16665008D02*
X7149634Y-16655484D01*
X7302015Y-16836436D02*
X7311539Y-16845960D01*
X7311539Y-16845960D02*
X7302015Y-16855484D01*
X7302015Y-16855484D02*
X7292491Y-16845960D01*
X7292491Y-16845960D02*
X7302015Y-16836436D01*
X7302015Y-16836436D02*
X7302015Y-16855484D01*
X7435348Y-16655484D02*
X7454396Y-16655484D01*
X7454396Y-16655484D02*
X7473444Y-16665008D01*
X7473444Y-16665008D02*
X7482967Y-16674531D01*
X7482967Y-16674531D02*
X7492491Y-16693579D01*
X7492491Y-16693579D02*
X7502015Y-16731674D01*
X7502015Y-16731674D02*
X7502015Y-16779293D01*
X7502015Y-16779293D02*
X7492491Y-16817389D01*
X7492491Y-16817389D02*
X7482967Y-16836436D01*
X7482967Y-16836436D02*
X7473444Y-16845960D01*
X7473444Y-16845960D02*
X7454396Y-16855484D01*
X7454396Y-16855484D02*
X7435348Y-16855484D01*
X7435348Y-16855484D02*
X7416301Y-16845960D01*
X7416301Y-16845960D02*
X7406777Y-16836436D01*
X7406777Y-16836436D02*
X7397253Y-16817389D01*
X7397253Y-16817389D02*
X7387729Y-16779293D01*
X7387729Y-16779293D02*
X7387729Y-16731674D01*
X7387729Y-16731674D02*
X7397253Y-16693579D01*
X7397253Y-16693579D02*
X7406777Y-16674531D01*
X7406777Y-16674531D02*
X7416301Y-16665008D01*
X7416301Y-16665008D02*
X7435348Y-16655484D01*
X7597253Y-16855484D02*
X7635348Y-16855484D01*
X7635348Y-16855484D02*
X7654396Y-16845960D01*
X7654396Y-16845960D02*
X7663920Y-16836436D01*
X7663920Y-16836436D02*
X7682967Y-16807865D01*
X7682967Y-16807865D02*
X7692491Y-16769769D01*
X7692491Y-16769769D02*
X7692491Y-16693579D01*
X7692491Y-16693579D02*
X7682967Y-16674531D01*
X7682967Y-16674531D02*
X7673444Y-16665008D01*
X7673444Y-16665008D02*
X7654396Y-16655484D01*
X7654396Y-16655484D02*
X7616301Y-16655484D01*
X7616301Y-16655484D02*
X7597253Y-16665008D01*
X7597253Y-16665008D02*
X7587729Y-16674531D01*
X7587729Y-16674531D02*
X7578206Y-16693579D01*
X7578206Y-16693579D02*
X7578206Y-16741198D01*
X7578206Y-16741198D02*
X7587729Y-16760246D01*
X7587729Y-16760246D02*
X7597253Y-16769769D01*
X7597253Y-16769769D02*
X7616301Y-16779293D01*
X7616301Y-16779293D02*
X7654396Y-16779293D01*
X7654396Y-16779293D02*
X7673444Y-16769769D01*
X7673444Y-16769769D02*
X7682967Y-16760246D01*
X7682967Y-16760246D02*
X7692491Y-16741198D01*
X7806777Y-16741198D02*
X7787729Y-16731674D01*
X7787729Y-16731674D02*
X7778206Y-16722150D01*
X7778206Y-16722150D02*
X7768682Y-16703103D01*
X7768682Y-16703103D02*
X7768682Y-16693579D01*
X7768682Y-16693579D02*
X7778206Y-16674531D01*
X7778206Y-16674531D02*
X7787729Y-16665008D01*
X7787729Y-16665008D02*
X7806777Y-16655484D01*
X7806777Y-16655484D02*
X7844872Y-16655484D01*
X7844872Y-16655484D02*
X7863920Y-16665008D01*
X7863920Y-16665008D02*
X7873444Y-16674531D01*
X7873444Y-16674531D02*
X7882967Y-16693579D01*
X7882967Y-16693579D02*
X7882967Y-16703103D01*
X7882967Y-16703103D02*
X7873444Y-16722150D01*
X7873444Y-16722150D02*
X7863920Y-16731674D01*
X7863920Y-16731674D02*
X7844872Y-16741198D01*
X7844872Y-16741198D02*
X7806777Y-16741198D01*
X7806777Y-16741198D02*
X7787729Y-16750722D01*
X7787729Y-16750722D02*
X7778206Y-16760246D01*
X7778206Y-16760246D02*
X7768682Y-16779293D01*
X7768682Y-16779293D02*
X7768682Y-16817389D01*
X7768682Y-16817389D02*
X7778206Y-16836436D01*
X7778206Y-16836436D02*
X7787729Y-16845960D01*
X7787729Y-16845960D02*
X7806777Y-16855484D01*
X7806777Y-16855484D02*
X7844872Y-16855484D01*
X7844872Y-16855484D02*
X7863920Y-16845960D01*
X7863920Y-16845960D02*
X7873444Y-16836436D01*
X7873444Y-16836436D02*
X7882967Y-16817389D01*
X7882967Y-16817389D02*
X7882967Y-16779293D01*
X7882967Y-16779293D02*
X7873444Y-16760246D01*
X7873444Y-16760246D02*
X7863920Y-16750722D01*
X7863920Y-16750722D02*
X7844872Y-16741198D01*
X8054396Y-16722150D02*
X8054396Y-16855484D01*
X8006777Y-16645960D02*
X7959158Y-16788817D01*
X7959158Y-16788817D02*
X8082967Y-16788817D01*
X8149634Y-16655484D02*
X8149634Y-16693579D01*
X8225825Y-16655484D02*
X8225825Y-16693579D01*
X8521063Y-16931674D02*
X8511539Y-16922150D01*
X8511539Y-16922150D02*
X8492491Y-16893579D01*
X8492491Y-16893579D02*
X8482968Y-16874531D01*
X8482968Y-16874531D02*
X8473444Y-16845960D01*
X8473444Y-16845960D02*
X8463920Y-16798341D01*
X8463920Y-16798341D02*
X8463920Y-16760246D01*
X8463920Y-16760246D02*
X8473444Y-16712627D01*
X8473444Y-16712627D02*
X8482968Y-16684055D01*
X8482968Y-16684055D02*
X8492491Y-16665008D01*
X8492491Y-16665008D02*
X8511539Y-16636436D01*
X8511539Y-16636436D02*
X8521063Y-16626912D01*
X8682968Y-16722150D02*
X8682968Y-16855484D01*
X8635349Y-16645960D02*
X8587730Y-16788817D01*
X8587730Y-16788817D02*
X8711539Y-16788817D01*
X8940111Y-16855484D02*
X8940111Y-16655484D01*
X9025825Y-16855484D02*
X9025825Y-16750722D01*
X9025825Y-16750722D02*
X9016301Y-16731674D01*
X9016301Y-16731674D02*
X8997253Y-16722150D01*
X8997253Y-16722150D02*
X8968682Y-16722150D01*
X8968682Y-16722150D02*
X8949634Y-16731674D01*
X8949634Y-16731674D02*
X8940111Y-16741198D01*
X9149634Y-16855484D02*
X9130587Y-16845960D01*
X9130587Y-16845960D02*
X9121063Y-16836436D01*
X9121063Y-16836436D02*
X9111539Y-16817389D01*
X9111539Y-16817389D02*
X9111539Y-16760246D01*
X9111539Y-16760246D02*
X9121063Y-16741198D01*
X9121063Y-16741198D02*
X9130587Y-16731674D01*
X9130587Y-16731674D02*
X9149634Y-16722150D01*
X9149634Y-16722150D02*
X9178206Y-16722150D01*
X9178206Y-16722150D02*
X9197253Y-16731674D01*
X9197253Y-16731674D02*
X9206777Y-16741198D01*
X9206777Y-16741198D02*
X9216301Y-16760246D01*
X9216301Y-16760246D02*
X9216301Y-16817389D01*
X9216301Y-16817389D02*
X9206777Y-16836436D01*
X9206777Y-16836436D02*
X9197253Y-16845960D01*
X9197253Y-16845960D02*
X9178206Y-16855484D01*
X9178206Y-16855484D02*
X9149634Y-16855484D01*
X9330587Y-16855484D02*
X9311539Y-16845960D01*
X9311539Y-16845960D02*
X9302015Y-16826912D01*
X9302015Y-16826912D02*
X9302015Y-16655484D01*
X9482968Y-16845960D02*
X9463920Y-16855484D01*
X9463920Y-16855484D02*
X9425825Y-16855484D01*
X9425825Y-16855484D02*
X9406777Y-16845960D01*
X9406777Y-16845960D02*
X9397253Y-16826912D01*
X9397253Y-16826912D02*
X9397253Y-16750722D01*
X9397253Y-16750722D02*
X9406777Y-16731674D01*
X9406777Y-16731674D02*
X9425825Y-16722150D01*
X9425825Y-16722150D02*
X9463920Y-16722150D01*
X9463920Y-16722150D02*
X9482968Y-16731674D01*
X9482968Y-16731674D02*
X9492492Y-16750722D01*
X9492492Y-16750722D02*
X9492492Y-16769769D01*
X9492492Y-16769769D02*
X9397253Y-16788817D01*
X9568682Y-16845960D02*
X9587730Y-16855484D01*
X9587730Y-16855484D02*
X9625825Y-16855484D01*
X9625825Y-16855484D02*
X9644873Y-16845960D01*
X9644873Y-16845960D02*
X9654396Y-16826912D01*
X9654396Y-16826912D02*
X9654396Y-16817389D01*
X9654396Y-16817389D02*
X9644873Y-16798341D01*
X9644873Y-16798341D02*
X9625825Y-16788817D01*
X9625825Y-16788817D02*
X9597253Y-16788817D01*
X9597253Y-16788817D02*
X9578206Y-16779293D01*
X9578206Y-16779293D02*
X9568682Y-16760246D01*
X9568682Y-16760246D02*
X9568682Y-16750722D01*
X9568682Y-16750722D02*
X9578206Y-16731674D01*
X9578206Y-16731674D02*
X9597253Y-16722150D01*
X9597253Y-16722150D02*
X9625825Y-16722150D01*
X9625825Y-16722150D02*
X9644873Y-16731674D01*
X9721063Y-16931674D02*
X9730587Y-16922150D01*
X9730587Y-16922150D02*
X9749634Y-16893579D01*
X9749634Y-16893579D02*
X9759158Y-16874531D01*
X9759158Y-16874531D02*
X9768682Y-16845960D01*
X9768682Y-16845960D02*
X9778206Y-16798341D01*
X9778206Y-16798341D02*
X9778206Y-16760246D01*
X9778206Y-16760246D02*
X9768682Y-16712627D01*
X9768682Y-16712627D02*
X9759158Y-16684055D01*
X9759158Y-16684055D02*
X9749634Y-16665008D01*
X9749634Y-16665008D02*
X9730587Y-16636436D01*
X9730587Y-16636436D02*
X9721063Y-16626912D01*
M02*
