M48
; DRILL file {KiCad 8.0.1} date 2024-09-29T00:08:34-0300
; FORMAT={-:-/ absolute / metric / decimal}
; #@! TF.CreationDate,2024-09-29T00:08:34-03:00
; #@! TF.GenerationSoftware,Kicad,Pcbnew,8.0.1
; #@! TF.FileFunction,Plated,1,2,PTH
FMAT,2
METRIC
; #@! TA.AperFunction,Plated,PTH,ComponentDrill
T1C0.800
; #@! TA.AperFunction,Plated,PTH,ComponentDrill
T2C0.900
; #@! TA.AperFunction,Plated,PTH,ComponentDrill
T3C1.300
; #@! TA.AperFunction,Plated,PTH,ComponentDrill
T4C1.850
; #@! TA.AperFunction,Plated,PTH,ComponentDrill
T5C2.500
%
G90
G05
T1
X56.25Y-80.92
X56.25Y-91.08
X56.5Y-128.88
X56.5Y-139.04
X60.73Y-93.735
X60.73Y-96.275
X65.0Y-124.685
X65.0Y-127.225
X68.35Y-93.735
X68.35Y-96.275
X72.62Y-124.685
X72.62Y-127.225
X76.25Y-80.92
X76.25Y-91.08
X76.5Y-128.88
X76.5Y-139.04
X84.25Y-80.92
X84.25Y-91.08
X84.5Y-128.575
X84.5Y-138.735
X88.73Y-93.735
X88.73Y-96.275
X92.5Y-124.38
X92.5Y-126.92
X96.35Y-93.735
X96.35Y-96.275
X100.12Y-124.38
X100.12Y-126.92
X103.3Y-80.92
X103.3Y-91.08
X104.0Y-129.92
X104.0Y-140.08
X112.05Y-80.92
X112.05Y-91.08
X116.92Y-93.735
X116.92Y-96.275
X124.54Y-93.735
X124.54Y-96.275
X131.55Y-80.92
X131.55Y-91.08
X145.0Y-80.615
X145.0Y-90.775
X149.38Y-92.43
X149.38Y-94.97
X157.0Y-92.43
X157.0Y-94.97
X165.0Y-80.615
X165.0Y-90.775
X173.5Y-80.615
X173.5Y-90.775
X177.43Y-92.18
X177.43Y-94.72
X185.05Y-92.18
X185.05Y-94.72
X193.5Y-80.615
X193.5Y-90.775
T2
X65.0Y-131.46
X65.0Y-134.0
X68.25Y-86.0
X68.25Y-88.54
X92.5Y-131.46
X92.5Y-134.0
X96.3Y-86.0
X96.3Y-88.54
X124.55Y-86.0
X124.55Y-88.54
X157.0Y-85.655
X157.0Y-88.195
X185.0Y-85.655
X185.0Y-88.195
T3
X56.695Y-107.5
X56.695Y-112.5
X63.75Y-76.695
X64.0Y-143.265
X68.75Y-76.695
X69.0Y-143.265
X91.75Y-76.695
X92.0Y-142.96
X96.75Y-76.695
X97.0Y-142.96
X113.5Y-143.0
X118.5Y-143.0
X120.05Y-76.695
X125.05Y-76.695
X152.0Y-76.695
X157.0Y-76.695
X180.0Y-76.39
X185.0Y-76.39
T4
X72.3Y-110.0
X77.0Y-110.0
X81.7Y-110.0
T5
X97.0Y-106.0
X97.0Y-115.0
X137.0Y-130.0
X137.0Y-139.0
M30
